<mxfile host="Electron" modified="2023-10-23T04:42:07.847Z" agent="Mozilla/5.0 (X11; Linux x86_64) AppleWebKit/537.36 (KHTML, like Gecko) draw.io/21.1.2 Chrome/106.0.5249.199 Electron/21.4.3 Safari/537.36" etag="bTxWCz_1eR-xM4whimPy" version="21.1.2" type="device" pages="2">
  <diagram id="f-n6UANCTaa7NNE7yS8R" name="What is Animus">
    <mxGraphModel dx="2924" dy="1194" grid="1" gridSize="10" guides="1" tooltips="1" connect="1" arrows="1" fold="1" page="1" pageScale="1" pageWidth="850" pageHeight="1100" math="0" shadow="0">
      <root>
        <mxCell id="0" />
        <mxCell id="1" parent="0" />
        <mxCell id="XFlSbY_NoUcpt89pXaqg-30" value="" style="rounded=1;whiteSpace=wrap;html=1;dashed=1;" parent="1" vertex="1">
          <mxGeometry x="200.7" y="280" width="479.3" height="370" as="geometry" />
        </mxCell>
        <mxCell id="XFlSbY_NoUcpt89pXaqg-1" value="py-animus" style="sketch=0;outlineConnect=0;fontColor=#232F3E;gradientColor=none;fillColor=#232F3D;strokeColor=none;dashed=0;verticalLabelPosition=bottom;verticalAlign=top;align=center;html=1;fontSize=12;fontStyle=0;aspect=fixed;pointerEvents=1;shape=mxgraph.aws4.external_toolkit;" parent="1" vertex="1">
          <mxGeometry x="415" y="720" width="68" height="78" as="geometry" />
        </mxCell>
        <mxCell id="XFlSbY_NoUcpt89pXaqg-2" value="" style="shape=image;verticalLabelPosition=bottom;labelBackgroundColor=default;verticalAlign=top;aspect=fixed;imageAspect=0;image=data:image/png,iVBORw0KGgoAAAANSUhEUgAAAHQAAABzCAYAAABJnyafAAABhGlDQ1BJQ0MgcHJvZmlsZQAAKJF9kT1Iw0AcxV9TS0UqFewg4hCwOlkQFXHUKhShQqgVWnUwufQLmjQkKS6OgmvBwY/FqoOLs64OroIg+AHi6uKk6CIl/q8ptIjx4Lgf7+497t4BQr3MNKtrHNB020wl4mImuyoGX+FHHwIIY1hmljEnSUl4jq97+Ph6F+NZ3uf+HL1qzmKATySeZYZpE28QT2/aBud94ggryirxOfGYSRckfuS64vIb50KTBZ4ZMdOpeeIIsVjoYKWDWdHUiKeIo6qmU76QcVnlvMVZK1dZ6578haGcvrLMdZpDSGARS5AgQkEVJZRhI0arToqFFO3HPfyDTb9ELoVcJTByLKACDXLTD/4Hv7u18pMTblIoDgReHOdjBAjuAo2a43wfO07jBPA/A1d621+pAzOfpNfaWvQICG8DF9dtTdkDLneAgSdDNuWm5Kcp5PPA+xl9UxbovwV61tzeWvs4fQDS1FXyBjg4BEYLlL3u8e7uzt7+PdPq7wcqgHKKgj0IngAAAAZiS0dEAP8A/wD/oL2nkwAAAAlwSFlzAAAN1wAADdcBQiibeAAAAAd0SU1FB+cDEAUQEIGSbAsAAA1OSURBVHja7Z19mFRVHcc/Z/YVMEQEYncWNRHFFzTESlNiKRFQZpassXRnyd4gH8ulN6OsgHwqLBPXzEfoqXR3lpL1bWeQstAdUFRI1CRYhEiRnVllETaIl9mXe/rjnoHrbWZ2ln1h7uz5Ps99Zs69v3vOved7zzm/3+/8zr3Qhygtlbl+b+S7Pt+WfDT6Ba6+zHzkyK0u4BcFsWFbKrxNPl3dDifUgnMkYqXfG3mmvGz3BF3tzic0jk8K6XrF721a9sWZzSN19TufUIBcEHPb84w3/N5oZWmpzNU0OJvQOE4Dee+YodHN5Z7mmZoK5xMKgITxQhirK7yR0Bdmvz1WU+JwQi3Ezuo0chvLPZGq8pnvDdXUOJxQRWueENwm8mLbKrzRuT6fzNEUOZrQY8QWSeSywlh0wxxP9CpNk+MJPdYNTzKEXOf3RlfedG30TE2XwwlVECB9rly51e+NLPL5dg/StDmb0DgGAwvzY66tN1236zRNnfMJjTfXs4zc3FPAdP476dp9vpU5IIUmNAnGDI0ucYqZU1oaKm1pKdx0xRV1hZrQJDAkysw52ljhjc5duFC6Mo/I1SVTpwarQT4LXKK73PRQLJHLdr4a3eAvi3w8Ey7I4wkNLi2tXwQdO6Skwhwt9BjaXVyG5Hm/N7pyjid6xkkytsSUKfW+AwdkI4iFQGF/lp5thB4zcwwhG/3eyKKbS9/stwqdOnXVpNLS0HNCiJVCcFIeqGwk9H1mTufQ/O3+sqY5fVnQ5MmPFU2ZElxmGMZG4MqTedNZPxcpYQxSPOz3RL+INOYHVpX8oxfNkPyWloJbpBQ/EYKM0LRdDBQIWYpLvFJe1lRd8el3RvU0uylTQp49ewobQdybKWQOiBZqf4CFFBWys9Pj90SWxApbl9bVXdjWTXtyPMilIGdk5A0yMDEMwZKC2LDNfm/TdemcMH36X4ZPmRKsArkZmJGpN9anLbSl5QKjZGhzM8iiDL3/c0GsKvdG1iBclbX1RVv/v0U25Apx8EuxWNtPhWBExndBfZl5OCw6xFHXOGAxcDSD7ZyrhZSvlXsiVT7fzlOPmyGhT8HBV6VkGWQ+mf3S5db8dfShQNC9qENwrhSyJoP14TwhuK0gVrDYbJmrS6SUa4CLHKUk9FdBf6p3766tL5ljID8JvJ6xtEohAAyjTeBA9LtStCJY0jB2YvFEhPwC0IKG87XcxYuFEagvqTY6O85DcBfQpqnIArNlxVNn7g/UuxcAFyPFak1HltihgaD7jUCo+DqXYBqSRk1LljgWquvdawYXNV8CYj5wQNPjcEIBli+/rD0QLK7qlIyVkvuATk2TgwmN448h997akLsSKT4KPK+pcjihx8bXUPErgaB7shB4EezSlDmc0Dhq6t0hcSTnQuDOwva8dk1dYjhq+qzmr6MPAT/WtGVBC00EKeSTwJsOudxOkA+++OKWmCY0mWMiWNIQK2gd7wAzJyyEmBQOl90Ciw3d5aaAijio8l//1ko6cheB+EoGPai7hRA/bGjwVOsxNA1UeCKLJRyOFbYuDdSd1QzMu2l2dLnLkFWcxOg7KTkshPwlDF3S0DC1X+eBnb0U4ngoyesVZbuvBVjxZPGmQLB4skDecBLMHCmEqMvLE+eHw2WLwuGp/T6pny0xRedJ6Xqq3Bv5W3lZ8wUgZE2wpG6wwQX0X7TEyy6XcVVDg+eGNWs8b2sttxdgDyVZHnIfDgTdi2SuHKeiJWQfdK9RIZgXDm/62LPPzn5Bmy293+upUJLCnX5vtNLnkzm1j5c01daXzBHSNRX4Ry8R2SYl93V0yPENDd7lfa29DmBCj+F0kPcWxKIb/WXRyQA1oaK1YycWX6qiJfb0IO9VeXmu89eu9VauX192MJNueiAEWl+KlOsqvJFVOS7XNxYvFm8B1TfPfjPYIfMXIJkPFKSZV6MQrm82NMx6OlNvdsAEWkuY1WEYW/1lkSU+355THnryQ62BevcCV468WMCqLrrXfSDnjxx5dEImkzmgCFUYhOR7BbH2beaKNCmqnyjZXhN0e1yCaRK22NSsdilZLoQ4Lxwuq6qruyHj52YH6lIIN1I8XOFpfqnc03Q5mNESQ0Y3TxRS/h6gs1O0CmFMWLvWOy8c9ux1kKbvXJR7IlVCcFuPFVYhA3nt+bc/tHrUO05/UgdqC33fQy2kqOjIbf+X3xtZ9I2ZOwo0odmBIcDC1rzBP9WEZhEMSZ4mVEMTqqEJ1dCEakI1NKEamlANTaiGJlQTqqEJPbkX72IN+sUb2UNoTb07lOtqO1e9eCOm6cyCLjceSmIYxoSuQkk0oQ7CilVjdiQPJdGEOhbxUBK1Iq1VE5oFiL94I1ZgDLgXb2S12VJXN2ZfbchdKXLEBAlPa0KzBDVPFDfWBt0zhMCLc1Z8a0LTMXMsK74PakKzohu+sC0QLK7qoHM8yOWAoQnNAvwpeEY0ECyZJ6XrcuAFTWiWoDZU9PdAsPgqgbwBeFsTmhUwV3znk38RgpW6PjQ0NDQ0NDQ0NDQyDXE1fSjw2y5kZwLWj6teCVQCHwR+CTwEXK+r9CQaYJgvYxLASOCfwDhgkjq+DnPd5BWYsTsfAyYCAaAZ8yu6FwCXA4OAZcARTAf4R5TMDkX8buCwKmcMsC0bDPlMQ/y1NksUOQCjgauA6cCjitw24GV1/HpglCLmfsCjjq8BNimZp4F3gI8Cc4EVmM7wH6lzHgbuA8ZrCnoXcU/RJo6/YatNkeoCioD1qgUOUccfAW4Fhido7XFMAL4OBDE/BieAa1Tr/TuwQHXTGn1EaJ2qfIBpitBmzJmI7aoFfytFPruArwLzgWtV6/y8aqHNSiY+q3EmcIsiV6MPutx56v9B4DuK2EKgCYgAwxTBnwPeAzZjxuosVC17D/AcsFV1xXuAzwJlwG+AeqCY42+c7lTbLF39zsc04A+6GjQ0umG2DGT9YRrwKTWktAN7lXL4hFPH+Fzgaz04f4saP52GAjW2T09y/DQnK22yB9uDDr3nO1Lc014ndzsD4X25ieCzpZ/B/GDecNX1akIdhrMt/1sxfdRZ8T21XOD0BPvP5/2feNyobtqOow6970GW/y3ZQmac0H0J9ts/O9WRRM6qMZ6qCD7Sg2vp6IHMB9QY+N8T0CHSRaFSqP7TwzrvSEMuTw0B/0nRcHItMinXx06wKQrrE8icDtyJOUNjVypqgYsTnLMO08n/sjIZAEqVmXC/Sv/YInOX2jcGc3puu0qPV+kw8K5qYfHyY+rcOzjufwbTc/U3tRkW+SOW8l4GllrOyQH8mJMNByzndGJ6zJZg+rutGGfLb5Qln5fUL8BjFplzgFOAG1Xd/ct2fT9XJuZgTI9dAHMWK34fh4FfkSKKsytCz8Wc+kqlAcdUJdpbfvz4A4rIeDqkZH5n2fc65gzNIcu+QcrcSEcL34w5zwvmZEE65zys5Ico8ruSb1UPZRwX245/D3jVkl6g5LZZ9q0D9ndRzhOYrtdUMreeCKECeCXNynlP2XSJCLVvryUgNNE2DjijG6bVnd0k9B4l/0A3ytiLOZ2YiFD79usEhPbW9sKJBFp/AnOSO45dwNWYTvyxmHOocQwnvQiGdtV9doX1qrXuBr4PfAa4VJVbrK7Lbht71W+96uan2ZSgt4DLLNvdajj5sm2cXQpMVg97uTrPOvx8JY3r38fxeeVkaAIeJ/Xyx7jMn1No72m30B/ajvlt534whfMhUQv9I/Ahi0yiFrolhVcnkYLWYjn3UBLtPH68McHxWbbyH0kgM9km85cULfSo6imGWs7fZhuTH7I1FKEe3LiMAVTbZMCMDjmWz4nYoaNt6W229LtqIB9kIZgklerBjHRIhbuBH3TDtDAw52BHqPRgRXJ3VpkV29KJFjNtUHnGezl3krzeUPe5I0V5h4CbE2jfVmsjxvvjueKwatyuEyHU/grvaqVl2X2lif5bcTANMgGeOgE70U5edych8m3pwwlk2tR1FXRxn1u6IDPjPEXnnyQbugz4ttK4dTiLw11/M5QaLzSFvU9oJWb4STK81wfXfZuNzH+qsSre1V5tM5e6CzmQCLW79hrTHAt7Exda/r8NXGIbNzf1kFC7ZjwigcyptnEzI97ZcCJ2aJMtPbUbClRfXPf+BEpQTxcy25WYG5Uf14qbE2izjmyhz9jStys7coNqvSOUkvIRpTCNID1ndHewCyix2MzfUvvOVo6MD/cw/43K9CmylNGoDPlDKn2N7ZwnM7kr7sqXG+qGO+rDSRwLyb6wa3cslCaQ+Vk3XWI53XQsoGy+dPN/3lKG3bHwWJL8rY6FAylMHquTPhFes5Z3ol1TBbA6DbkOmxeot3A3sDPJsf9avDY9QTVmQHhXY2NIOQ4y4vVzybrcZsyg6zgituOtwHXAx9XvRZi+3MOq5TUr70rY9vQttBjth5OU/SjHp8kA/p1AZh9mVH4l5kKoPEw32XOYq+lygS+lcDTcamlRqV7w+CDmqoLr1b2OUte/X2n2T2Eu7bDX3QJLenuSvH/F8eUkbUlk7rEoZMmGrSp1XQD8D8fFGIo3K4lpAAAAAElFTkSuQmCC;" parent="1" vertex="1">
          <mxGeometry x="240" y="320" width="80.7" height="80" as="geometry" />
        </mxCell>
        <mxCell id="XFlSbY_NoUcpt89pXaqg-3" value="" style="endArrow=none;html=1;rounded=0;startArrow=none;startFill=0;endFill=0;" parent="1" edge="1">
          <mxGeometry width="50" height="50" relative="1" as="geometry">
            <mxPoint x="310" y="420" as="sourcePoint" />
            <mxPoint x="400" y="510" as="targetPoint" />
          </mxGeometry>
        </mxCell>
        <mxCell id="XFlSbY_NoUcpt89pXaqg-4" value="CloudFormation" style="sketch=0;points=[[0,0,0],[0.25,0,0],[0.5,0,0],[0.75,0,0],[1,0,0],[0,1,0],[0.25,1,0],[0.5,1,0],[0.75,1,0],[1,1,0],[0,0.25,0],[0,0.5,0],[0,0.75,0],[1,0.25,0],[1,0.5,0],[1,0.75,0]];points=[[0,0,0],[0.25,0,0],[0.5,0,0],[0.75,0,0],[1,0,0],[0,1,0],[0.25,1,0],[0.5,1,0],[0.75,1,0],[1,1,0],[0,0.25,0],[0,0.5,0],[0,0.75,0],[1,0.25,0],[1,0.5,0],[1,0.75,0]];outlineConnect=0;fontColor=#232F3E;gradientColor=#F34482;gradientDirection=north;fillColor=#BC1356;strokeColor=#ffffff;dashed=0;verticalLabelPosition=bottom;verticalAlign=top;align=center;html=1;fontSize=12;fontStyle=0;aspect=fixed;shape=mxgraph.aws4.resourceIcon;resIcon=mxgraph.aws4.cloudformation;" parent="1" vertex="1">
          <mxGeometry x="410" y="320" width="78" height="78" as="geometry" />
        </mxCell>
        <mxCell id="XFlSbY_NoUcpt89pXaqg-5" value="" style="endArrow=none;html=1;rounded=0;startArrow=none;startFill=0;endFill=0;" parent="1" edge="1">
          <mxGeometry width="50" height="50" relative="1" as="geometry">
            <mxPoint x="449" y="430" as="sourcePoint" />
            <mxPoint x="449" y="500" as="targetPoint" />
          </mxGeometry>
        </mxCell>
        <mxCell id="XFlSbY_NoUcpt89pXaqg-6" value="Scripts" style="shape=image;verticalLabelPosition=bottom;labelBackgroundColor=default;verticalAlign=top;aspect=fixed;imageAspect=0;image=data:image/png,iVBORw0KGgoAAAANSUhEUgAAAIAAAACACAYAAADDPmHLAAAAGXRFWHRTb2Z0d2FyZQBBZG9iZSBJbWFnZVJlYWR5ccllPAAAAyZpVFh0WE1MOmNvbS5hZG9iZS54bXAAAAAAADw/eHBhY2tldCBiZWdpbj0i77u/IiBpZD0iVzVNME1wQ2VoaUh6cmVTek5UY3prYzlkIj8+IDx4OnhtcG1ldGEgeG1sbnM6eD0iYWRvYmU6bnM6bWV0YS8iIHg6eG1wdGs9IkFkb2JlIFhNUCBDb3JlIDUuNi1jMTExIDc5LjE1ODMyNSwgMjAxNS8wOS8xMC0wMToxMDoyMCAgICAgICAgIj4gPHJkZjpSREYgeG1sbnM6cmRmPSJodHRwOi8vd3d3LnczLm9yZy8xOTk5LzAyLzIyLXJkZi1zeW50YXgtbnMjIj4gPHJkZjpEZXNjcmlwdGlvbiByZGY6YWJvdXQ9IiIgeG1sbnM6eG1wPSJodHRwOi8vbnMuYWRvYmUuY29tL3hhcC8xLjAvIiB4bWxuczp4bXBNTT0iaHR0cDovL25zLmFkb2JlLmNvbS94YXAvMS4wL21tLyIgeG1sbnM6c3RSZWY9Imh0dHA6Ly9ucy5hZG9iZS5jb20veGFwLzEuMC9zVHlwZS9SZXNvdXJjZVJlZiMiIHhtcDpDcmVhdG9yVG9vbD0iQWRvYmUgUGhvdG9zaG9wIENDIDIwMTUgKFdpbmRvd3MpIiB4bXBNTTpJbnN0YW5jZUlEPSJ4bXAuaWlkOjg2MzNGMkZGQUZCMzExRTU5MzcwODJDMkExQkJCNDZGIiB4bXBNTTpEb2N1bWVudElEPSJ4bXAuZGlkOjg2MzNGMzAwQUZCMzExRTU5MzcwODJDMkExQkJCNDZGIj4gPHhtcE1NOkRlcml2ZWRGcm9tIHN0UmVmOmluc3RhbmNlSUQ9InhtcC5paWQ6ODYzM0YyRkRBRkIzMTFFNTkzNzA4MkMyQTFCQkI0NkYiIHN0UmVmOmRvY3VtZW50SUQ9InhtcC5kaWQ6ODYzM0YyRkVBRkIzMTFFNTkzNzA4MkMyQTFCQkI0NkYiLz4gPC9yZGY6RGVzY3JpcHRpb24+IDwvcmRmOlJERj4gPC94OnhtcG1ldGE+IDw/eHBhY2tldCBlbmQ9InIiPz6sYehDAAAboUlEQVR42uxdB3iUVdY+0/tMeoN0CKFakcXCIigrFgR1RZHepIgI6A/rgq7CrqJSpEmVJgpWxMYKSIcQSCO9955MMr1mZu+5IflRgSRDyszkex/z8BAzZOa77z3tvudclt1uh5vBZrNB//79ISMjA1wdMpmc4+3r/7CPf8AYDo//AIvF6a/WaAT4+SVicQOfz8s1GnSXdOr6H6oqyo7VK5X1dhf/zGw2G1JTUyE6OvqmP8MFN4eXl7cwJDxyElcgnm62NtytN1n5Vp2RkhuBi2xRqTgsFiuKy+VG8SUek8L7eGey7A0Hy4sLdpSVlpS68/NxWwLw+XwIj4wap/D1f8dgMA/Ua/VgtpjBYrEAn8cjFkEGUokEyMKD3mAAjUZDv9gcDgj4gj48Pu/tnpHRc3z8Aj4oyM3apFarzQwBXABkPSGwR3D/oJCIlRYbjFOpNGAymQBNff++0TDy4b/C4HvugrDQkEYCsAkB9AYoK6+AxKvJ8Nups3AlPoGSgZDFXygQrukz8J4Jyury5UX5uUeRQG71vNwpBvD28VFE9O77egNwFhmMRonZbAaj0QR3DBoAc2dNg1EjH6aWoSVcjkuArTt3w/GTp4HNYoNAKAChQAAiPveL0sLct0qKi3Ju9dxcKQZwCwKIxWIIi4waL/fyXanW6npbzBZi1vXg5+sDs6ZNhqmTJoBIKGzzv/vT0V9h/aatkJaRCWKRCHjEdUil0nqrUfdhYW7WeqWyVs8QoIvNfWh45F1+gSGrTA22xw3ElJtMRuAQP/70k4/DwldehtDg4Nv6HRqtFnbu3g+7938OdXX1ICJE4Av4IBGJUlS1lcvzczK/R0vDEKDzo3vv0F59lrG4ggXEhwvMZhNZfDPce/ddsPjVuTDswfvb9fdl5+bBuo1b4Jf/HqeZg4C4BGoV2PBNWVH+irLSonRn8wpuSQCpRAo9QsOmyL3839YZDOEWsvswiAsKDIA5M6fBpAnPU1PdUTh24hSs27QFkpLTiFsR0JiCuCCtxaBZW1KQt4a4BTVDgI5IV4hZJ/n8EP8eIau0BtMjGNkbDUayADx4duwYWDB3FvQICuyU92IgaeOnxCWga6iuqSGWQAwkbQS5VJKpqat+Kz8n60u9Xs8QoL3gHxAY0DOs15vA4c3VanVcC8nn0e/+ZchgYu7nw9D77u2S91VQWATrN2+FIz8dBVtDA3ULIhKQCrjsH6vKilcU5uckdqVbcHkCSCQSdkTv6JlCqccKYu57msmuN5BdHxLcE+a9PANe/PszNODrapw6e57GB3HxSZQE6BYkYrHR3mDaUJCT8YGytraWIUAbgIsaHBo2zC8odJXBZHkIzb3BaKCp3AvPPQPzyeL7+fk6VcBlJqnnvs8PwrZde6C8vJLEBSRAJESQikV5amX1v4ryc/Z3tltwSQIE9egZ7BsYvJzDF87U6fRsNPUWqwWGPTCUmvt77rrDqWsSJWVlsHHLdvjm+x8B6xFCQlqhSAg8FhzDamJxYV6s1drAEOCPkCsUvPBefeYKJYo31VqtP43uSbAVGR5GArzZ8Ny4MbRu7yq4EBMLa4lbiImNAwEJENEtSKVSCzSYtxTn57xXWUHMBEMAoAczoRG9H/XyC1ypN5qHGE1GGt1LJWJ46YXnYe6sqSTn9wJXRAMJDD8/9DVs2f4pFJeUXl9EKjbqVCvzstJ36XQ6W7clQEBgUDiJ7t+x2tmT0Mejr8do+uG/DoMlC+fBwP79wB1QWVkFm7bthENffwdG8hlFQlFjIUnIP1NZWri8pDD/rLWhofsQwNvbWxgYHLaARPdLyQ7wxhM2NPd9eveC1+bPgTFPjgZ3xJX4RFizYTOcuxBDi1V8HrEGErHNZjHuqC4vXlla0r7aA6cjAPrBiF5RT3j4Bq7S6Q134m7A+r1CIYcpL70As2dMAYVcDu4MfN5ffnMYNm3dCXkFBY3lZPJc5FJphUmn/ndeTsZWtUpldSsCYOzWIzg0qkdIxLsmq2087nbztTP6UY+MINH9PIiO6g3dCTW1Svhkx6c0RiDZTnO2IBYKYuqqypYX5GafMN+m9sApCODp5SUNjYhaxBVKXifmXo75Mvr7Af2i4bVX5sLoUY9Ad8bV5FTqFk6eOUfrHwK+gNYQuCz7npKCnHfKy0oLXJIAaO7DIqOe8fD2W6kzmvqZTWYwGPQ0op8x5SXyNRErfcCgEYd/+Ak+3rwNsnJyr2kP+JgJ1Ri1qtWFeVkb1Wq1ySUIgOY+PKL3AE+S1lntrLFGYu5RlYPSqycfGwWLFsyFCJLbM/gz6lUq2L5rL60oqtQamjYKBUISLHLiDRrlitzMjJ9NbdAedDoBvL19PMKj+r4ObN4inV4vbpJk3TloIF34kQ8PY1a5FUjPzIK1G7bArydOApvsKAEhgYi4BSGXfbBRklaY3ZpDpk4jAEqyQiN6vyj38n1Ho9P3bqri+fv6wqzpk2HqxAkkyBEwK9tG/PzfY7Bu01ZIT88gz09Ej76lEonKakJJWjZK0nRdSgAszIaGR97tGxS8ymy1j8Zz8iZJ1tinHoeFJKfHkzsGjkOr1cHOPfth974DoKyrI25BTCwCn8QJwtRGSVrW4ZtJ0jqUAHK5XNy736AVdhZ3sd5g5FNJFnkjKLlevGAePPTAUGb12hE5efn0yPnnoyhJs1OVspDECAIu++vivKw3bpQtdBgB/AICeof17rdPZzD9BfN5KskKCqDS60kvjgcul8usWAfh+G8oSfsEkq6mUrfKJ2mjVCouV1aWzsjNyvilrQRgt/UN9OgZfEdwZN/f1Fr9X/Q6PTQ02KgO7/Chz2DapJeYxe9gPDJiOHz9+V54c+lisvAS0Ol0oFZrA2Xe/t9H9R0wsc2pYlt+OCAwKMQ/OPKITm/oieIGfz8f2L55Hbz37ltUlMmgc4DCmHmzpsOX+3dTl6vVabGkzhMrvHdHRkWP7hACSKUyXmT0wM/0RmOIgSw+5vKffboNRg5nUruuQlTvSNi7Yws89uhIQgIdilW5fj1C9xErHdZuBGiKEaL6DVhcr9E+hD7f18cHdmxaB5ER4cwqdDEkEjFsXPM+DL1vMFUrK+vqfYIjojbh2UJr2tdaJIDVagUPT68ePKH0H7j4GBiufPuf0Csygnn6zuISSDbw0Xvv4jE77X42WhqeCAmLfKJdCIBBXc/QiHkarU5hMBrhydF/IyZnBPPUnQyhIcFULGuiWZkePHz8l0qlUlbTHASHCIAv9vDwELO4/InYWy8Ri2EOCT4YOCcmTRhPLTNaAZPF+qC3r99dLRGA2xIB5B5eQ+srlCF4mjd82APQv28f5kk7AS5cugzHTpyE3Dys/9hh0ID+MH3KSzD+2bGwavUaMAkELKnCcwybzYp3mAB4ECGRKoZbrJXQYGuAEUzE3+XAIRZrPt4C5y7GUNk5l8uhzarYs/jLsRMwffJL4O3lSQJCE4gkouF4kOQwATjE/0sVijusFisNNO4cNIBZgS6CSqWGLdt3wd4DB2nlFUUjWA5uAmoIcvPyYfuuPXStdDoD8ATC3nK5Qkb+t8YhAqAO32Q2h9vsJBZQKCCQKfZ0CfBU8KP1myAzO4eKaDD1u1mBqLyikpaAORw2kI3ra21o8HeYACSNYBO28QBHqZFfKiHMYtB5yCsohA/XbaQE4JBFlctkLb6mqVfy2ublkqyA67ALuBYI0mwSZ+Ugsxh0PPB499N9B2Drzj1QW6ukm8+Rrig7rl0LtQDm5MbJcP5iLNn1G2gPgUgkpAc+HQmGAE6CqupqKgrF7iGsvspk0k75vQwBnADYKLKeLH5hURGdXdiRI24YAjgRUtMyYDUx9ydPn6VtYq0J8hgCuAFQ54eDKHH0nEajpbu+q8AQoJNx7LdTNKdPSUunZys3y+kZArgZikpKYM3Hm+HIj0fp37vC3DME6ALgkAgs327ZtgsqqqqaJ5Q7CxgCdCAux8XDB2s3wsVLl2nnr0wqdbr3yBCgA1CrVNL+/wMHv6Ljazsrp2cI4AQ4/MPPtK8vNz+fmns8tXNmMARoJ2Rl58AH6zbShk6U0TlLkMcQoIOBk0t37NkHOz7dR9u7MbVzpXF2DAFuAzgiFo9rE6+mUFMvdcGBFwwBHADeL7Ru4yfwzfc/NOomnTjIYwjQjsCz9QMHv4aNn2yH0rJyelTrSuaeIcBtAMWYH6zdAGfPx9D+fJkL73qGAG1Asxjz80YxZkcLNBgCOBH+JMYUi93uMzIEuAFy8wvgQ2Lujx47QXWQrpLTMwRoB3z2xZfw0cebb0uMyRDABYGt1StWvgcHv/qWzuZzN1/PEOAWwOEK8xa+QefvyOUyt9/1DAGuA17fsmTZCjh+8hSdWt7d0O07PXbs3kuvfXP3MfUMAW6AopJS2n0jlYi77TPo1gT48uvv6M2f3Xm0XbclAHbf4Ix+gaB7zzDutgTANmq8yYt/G104SCJnuCOYIYADqKyqorV9R1M+bO7w8faGZ8Y+RVu37c52dzyTBt4auPg2G17V1va7h/EuHxzOuHzZEhyiBSdPn6Pfc4Z7jBkCtBKOblgcw4YDmXZsWU//juIQtCKo/8e5yWw2y6WCSqYS2EbgIvv7+15HJBu9AQ31Ad5eXvSijPp6FUMAtwUJGSyW/7/WTyaTwYY1q6FvdBR4enpQ/cALk2dCSWlpp7Z5MwToRN+BSuAm4FHx9XchaTVa0Gi1LjNOhxn606a1twPe8XvvPXfe9Gfik65CTU2NywSEDAHaALzhE6+yX/Lq/Jv+TFx8Io0TmBjAzYB5/7gxT8CyJQv/9P3k1DTaFIJVRez/d6Ub0hgCtCbvN1sgNDQY/rV8afP3LFYr7Ny9D7746lvAS78xDUSzjykgXu/mKnUhhgCtIoAZ5s+eAV6ens21gIVvvEkbQSViEb0mF2sBGCM0/gmMBXCbxbdYoFevCHj6qcebv4dDHA8f+Ymmfb/LEF1QScQEgS0AdzveiyS+NiYXrcH3P/7s9G3fDAHaJ+WnPv3+Ifc1fw9z/OoapUvW/RkCtJkANtrxGx4W0vw9lI717dObRP1qSgb8wrv7jNfuU3I1MDHALYBjstH0X9/2jRZhw5r34eivv0FBYSHo9HpaHygsLoGMzCxaJcQZvwwB3AAY0uGu/uNZP2YDE8Y/+wdrYYfklDR4f83HcD7mUnPMwLgAV/aPbDY18TW1ypbJQjKAQQP7w47N6+i9Sjgcyi0I0JTa4I3Vrqp6cdgCkM+OwpETp860+jXYRDp14gSwWi3O8AEavxwlAHkAdqFAYGcRY2gkvg0Dne4GnO+Hef/luIRWv+buOweBVCrt0qAQNyuPx7PzeTzb7cQAdrFYXM5is/pirbumtra5GtZdwCPpnlqjgRlzF8CzT4+BYQ/dDz0CA2j1DwdF+Pv5/enoF+9Xwt7CujoVdNWpMBKAvL96AZ+vdJgADVYrGHTaFBL5jtCSSDctPROievXqXqkg+ULlsNFogp179sOez76ghz14KRMKPoICA+HNNxbBA0OH/M51NJLCMZdptxKby7bfVoTGIr+/wWIp0Go1NT4+3o65ADRhWk39WapxI4w6deZ8tw0IsfCDuxp3PT4XVAVh+peQeBXefe9DvKCp+WdRFobdxqw2bn87MdY2EwsEAVbgSO23daaABDQb9RcNBv1tBIGEyVp1/Wk+j1svIKw/c/4ClFdWdu/U8NrubryajUNnCNTV19Nj4SaUlJTRewDYrT0bsDcuPFtgB79RegidqQKBn5VaAkfNP1otvU7zA55SOkwA/JB1SmU1h2U/guauqroG9h04xOSH17tJ8oBRDHr9FJHL8Qn0CLk1h0N2CwvsDSxQ3GGC0Bkq8B6hBzYfbmv3IwFEQkGWsrrydEvStJayAHoYUllavF4iFjfgxYT7DhyE9MwsZuWvASt/o0eNJPEAt5kQx0+eppqAFs29kZj7QCv0mKCGoOc1wPdpoISgSbflNna/QAh6df3HdXV1Jjabc3t1APT/VRVlCVyWfR+Px6fDFJYtf4f6v+4OlVoN995zF0ybNKH5e2fPX4TklFSaJdzK3HOIufd9TA8h01Ug62sGG1lwFlmrBi0LKn6QgrGMC2yu3SECyCSitOKCnN3tVgjCfzQvK22ZQiErQSsQl5gEr/3fmyQyNnaPTIB8fvyseBSMph3r/5gaDnvgfti6YQ2Vhjft/k3bdjYLQ24U3VNzf6eJ+nnf4cTco+GwAY366y8LoXCHB9RdFDYmEG00AjabHeRyua26vGieSqUytEaZ3OqzgOqqyioPz+LJUi9/vPOE/8uvx2Hm3IWw+t//gh5BgW69+PggB5OdXlevooJPPB184rFR8PSTo393LLxr72cQE3vlhhdD2EksJvC3gu8jepD2MTe6ANz1PDsYirhQc0IM2mw+sMiKsIWO7Xw+yVAsBs2b+TnZp1v7ujYdBmVnpp8cdJdkulgs20t+HwezgudemgpLXp0Hz4172j19PNn5KAj5dOvGxkooWZsbiT7R9OOdQDc8BLq2nv6jdXTxrXqSRfDtYNWwQHmOZBGxQrCZG7MAR0nKJUG6mM9dH38pZnVLkX+bXMAfkZwYd0BVXfq8p6dHnVgigaqqali8dDlMnP4yzYndDdgCPvSaIASva7/R4p+7cAkWLFlG5w3dTChCPQK7MbpnceygShRA4U4F1J4RUReAhHAE9MhaLAFWg+nthNjzi/D9tgVcR9iWl5P1Lfk8Wb5BIRu1BuNws8kMZ85dhMtxifDi88/AvNkzwM/Xxy3MP8Y8dw7qf4sswAAr3v0PrQWgQPRW6RubmHtTBQmqj0pAk0HMPdsxc9/03pBsCqk0T1lVuigvO/NIW3a+wxagCbk5WSlX4y6OJE5nrlwuLZXJZbTdesfufTB2/ET4/NDXLqmQ+WOO7+/vRwgw8IYLcP3uxmzppot/bfdXEz9fuEsBmnQ+3fEsB6N8hEQiMQm4rI+yU+Pvy85Ic2jxHbIA10Ov09lSEuO2+gcEft8zLPKfIqHiZQ6Hy62srIKlJFVE8eTiV+fDkMH3uCQBMPjDCSBY/48ID6OZQGJSMk3/3l/5No30ceF510rlLYEGecT8O+rrcUOJxGIQcNg/V5UXLS/Mz0243RP6dlEEVVaUl9dWV70SEhZxwK9n6CqdwTSCSwImjIgnTp9DAsQxsGDuLAgKDHA5AmChZ+V7H1Jz20AWAPUB9917d/MJIO0AbmXJF12A4+aeCx4KebZaWf1Wdm7WwfYaTdNuh5XYNJmXm30x+crFkWyrcZpcJi2QymT02ez//BCMI25h9/4D0NYgpauBuxxFHgKBkE4LxzkA1xd58NYQnDXUEUMhqLnH3y8W6yQCzqrs1ITBacmJB9tzLlG7n1ajQjYp/vKe3LSkwQI2rJHJZGYslKCsasW778HfJ06jKZOroWmTc6hVMEDslXiY8+oSeH3ZWzRWaO92cFx8IQpSRYLvKopzh1yJObuitqam3SdPsG4l80Kf079/f8jIyHD4oYWERd7tFxS8ymy1j8YHZzIZqTkd+9QTsHD+yxAS3LNLFvT02Qsw7eX5zW1djgSIqPtDBXB7dgRhNY/H54FEJExV1VSuyM/N+s5sdkxfiKRMTU2F6OjozrMAv2cxAAlU4lMTYh836+oneHoociRSKSXAoW++I25hEp3U6YpSM3y42B3UXovfuBFZoJDLVDxoWJGTmjgkMz3F4cXvMhdww2yB+Kz0lKQvcogPE/PZ/5HLFXo8PsVoetX7H8FzE6a2SXjpLLFBu9YbSHyhkIkOlhfl3JcUF7NKqazVdQqRO/Oh1dbW1MfFnPtnXUXRELGQfxiDRFTZpKSmw8x5C2HB4qWQl18A3QXoYrGEK5WIE8wa5ROJl86/WFJUmNWZ4utOlyzihyPZQkpyXMw4g6r2WYVMmiYlkTWPy4PDP/wE416YDBu2bKPBpLuiKbpXyOU1LIvxjeyU+KFpKVd/Npk7v5egyxpD0Ldlpad8m52WOIQL1rcUCrkaLQLqDFav3QDPvDgF8MTR3RbeTmv3JJ0UCfYW52UMTk688pFare6yIKjLO4PqlErt1bjYlRXE98klokOYMkolUnoZ81ySZs1+ZRFkZGW7hbnn8wVYzInR1VU9knT5wtSKstIu93dsZ9kZxPdlJsWef8GkVT7p5alIRCLwBQL45b/HaZCId/Ri0OiKux7VwZ6eHhUcm/nV9KTLD2VlpJ3AwRNOkc0408NCH5iecvUn9Il2i2Ep8ZFKrLyhLnH95q0kbZwMR378xaXMvUQisQk4sK04N31wYtyljWqVyqlKoU7ZHFpbW2tMSYz7oIQ8NImQv18qlVHZVX5hISxYshSmzn6FTuZyWnOP6hw093LpGWVF8fCU+Ng5ZSUlJU5Zz3DmXVRRXpZ39crFycRnjvKQSWNlhAgCoRB+O3UGxk+cDv9evRaUyjqn8vOowvWQy4rBapidEn/p4YK8nLNWB49quz0BaLZAfGV2Ztqx9KtXHmTbTAu9PBSVEqmEjmnbsmMX1R589e33Xdq5TM09+VMul1skAs7HaO6TE67sIKms0wsiXGY+APGdlqS42A3FuRmDFVLRDlS/okUoKS2HxcsaJWlxCUmt/ve4PG67VPOwdo9WSSIUHKstL3owIfbCa+VlZS7TPuVyAyLKSkuKEy6dm62sKHpYIZOcxTZssUgMZy/EwISps+Dtle9DZVV1i/+Or7cXPQhy1HI0qoWJuVfI8szauskZV6+Mys/NjnVmc+8WBGgsIlmgIC/3TGrCpeFg0b+skMtKMEhEH4zS7LHjJ8FnB7+CW8mk8BQyMCCgzfqEJsJIJRKjkMf6ICct8b6M1OT9rnp3kEuPiEEfm5wYt70oJ22wiMfZqFAorHi2UFVVBf9Y8Q68MGUmXIy9csPXConZfuzREVTh05YgD8/o5VLxj7UVxUMTYs8vVZKUxZWfoVvMCKqsKK9Iunzh1brKkge9POTH8cgZJeuxl+Nh8ow5sIyQoaCw6E+vmzltEgwc0A80Gk2LaR2aey9Pj0yrXjWeRPdPkeg+0R0m5nSoIKQrgGXkHqFhU+Re/m/rDIZwi9lM+/V9fbzhbyNHwOi/PQr9+0WDD4kBEHh93D/eehcuXrpMg8LrA8OmKp5ELNZaDJq1JQV5a5TKWpcpR7ZGEOJ2BGiCl5e3d2ivPstYPMErxMwLLSRuMJlNVLuHPQsoUPX08KSNHnh7aEpaOtht9uZeSHwq2OXDY8M3ZUX5K8pKi9Jdbce3hgBuOyeQ7NTaussX3giL6LXPPyjkDYsNxhmNJqnFaoHaWiVUVlbTyWf4X9O4FxaLTXe8kC+wCQXcU+raqo/SsjJ+MZvN7vqY3HtQJO7Y/Nyc5NLiosnevn5RCk/vp2UyxSM2O6svsCCQEIJLhynx+TYul1NjszXkWE3G07Xl5UeUNTUxOp0W3B3/E2AAqU/bODW2UK4AAAAASUVORK5CYII=;" parent="1" vertex="1">
          <mxGeometry x="570" y="320" width="78" height="78" as="geometry" />
        </mxCell>
        <mxCell id="XFlSbY_NoUcpt89pXaqg-7" value="" style="endArrow=none;html=1;rounded=0;startArrow=none;startFill=0;endFill=0;" parent="1" edge="1">
          <mxGeometry width="50" height="50" relative="1" as="geometry">
            <mxPoint x="570" y="420" as="sourcePoint" />
            <mxPoint x="483" y="511" as="targetPoint" />
          </mxGeometry>
        </mxCell>
        <mxCell id="XFlSbY_NoUcpt89pXaqg-8" value="" style="shape=image;verticalLabelPosition=bottom;labelBackgroundColor=default;verticalAlign=top;aspect=fixed;imageAspect=0;image=data:image/png,iVBORw0KGgoAAAANSUhEUgAAAgAAAAIACAYAAAD0eNT6AAAACXBIWXMAAA7DAAAOwwHHb6hkAAAAGXRFWHRTb2Z0d2FyZQB3d3cuaW5rc2NhcGUub3Jnm+48GgAAIABJREFUeJzt3XecJVWd9/FPd88ME8hBcpAcRAEVJAgKopiQXUUXwbymNbHuuj66Po/u6pp1Deuzj7qGZfVlwF0FSQpmUMQIigKSo6IMMDDMDDPd/fxxumXorqpbVbeqTtWtz/v1qtfA7Vt1fzN9b53vPXXOqTHUR5sC+wG7ArsAOwPbAFust40By4BFcUpUz6wGVgF3zmxXA78DrgR+CFwbrzRpNI3FLkC12wg4BDgMOBjYH9gpakVScTcD3wXOAM4mhAVJQzAAjJ4JQkN/3Mz2yJnHpFGxAvga8Angosi1SJ1lABgN44Rv+CcCzyZ050t98DPgI8DngcnItUidYgDoth2B5wJ/g9366rfLgNcA349diNQVBoDuGQOeApwKHEP53+F9wBXADcD1M3/esd42CdwNTA1XrpTLBsBSYDNCmN0D2IvQs7V1geNcCzyPMHBQkkbCQuCvgd8C0wW3VcAPgPcCzyScXB0XoK7YG3gV4T08Rb73/EeiVCpJFVoAvJjwzaZIo38p8B7gaMK3K2kU7Ay8HfgTgz8DlxA+P5LUOU8jdNPnbfRvAP4F2DdGsVKDlpHvM3E1sGGkGiWpsH2Ab5LvBHcX8B/AUYTZAFJf5A3Gv8eZMZJabiHwRsKqaINOan8A3kZY1U/qoyKXxO4mrHwpSa3zKOByBp/IrgFeASyOU6bUGkUHw67AECCpRSaAfwTuJ/vkdT1wMg5qkmYVDQDTwL2EWQWSFNW2wPfIPmGtBt5BmCMt6QFlAsA0sBJ4WIR6JQmAxwK3kn2iuoAwIFDSfGUDwDRhbYwDmy9ZUt+9AlhL+snpNuCEaNVJ3TBMAJjtXTu48aol9dIYYeR+1knpW4RLA5KyDRsApgljb45ounBJ/bIB8BXST0RrCVMAncsv5TOocZ8krKA56FLb/YR1NCSpckuBc0k/Ad0AHB6tOqmbshr1r/LgnrSHzzyW9vx1wHFNFS6pHzYk3KI07cTzQ2CLaNVJ3ZX2mfoF6dNlTyb0DKSFgKfWW7KkvlgCfJv0E9WZOL1PKivtc3XKgP2OIzT2aZcNTqypXkk9sQHZ6/l/Ahf1kYaR9tnaMce+g0LAX9VQr6QeGANOI/0E9e54pUkjI+3ztTDn/seQHgKmgL+uuF5JPfAe0k9Ob45YlzRK0j5jRTyO9DU5pghrdkhSLi8m/cT0wYh1SaOmigAAcCTZC3O9topiJY22g4D7SD6J/BfO8ZeqVFUAADiU7BtyvXHYYiWNrocAN5F88jgDB/xJVasyAAAcQnYIeMswxUoaTWPA2SSfNC4GFscrTRpZVQcAGNwT8I4hjy9pxLyO5JPFcuChEeuSRlkdAQDgUcCajON/qILXkDQC9iHcWjRpBLGrikn1qSsAQAgBWT0BH63odSR11DjwA5JPEO+KWJfUB3UGAIBHkt0T8BnC5T9JPZTW9f89HPQn1a3uAABwINkh4DSc3SP1zrbACuafEO4Fdo5Yl9QXTQQAgAOA1Rmv90VgoobXldRSaUv9viFmUVKPNBUAAPYneazP7OZUX6knDiEM8pt7EvgV+dchlzScJgMAwMPJ7gk4Cz//0shLusXvFGFdcUnNaDoAAOxH+mqf04Rzg+t+SCPqWJI/+J+MWZTUQzECAAweE/BdYEkDdUhq2I+Y/4FfSVgKWFJzYgUACCEga0zARcCyhmqR1IDHkfxh9y5/UvNiBgAYHAJ+AmzcYD2SapS03v9qYPuYRUk9FTsAQFgnICsE/ArYvOGaJFVsH5JH/n8sZlFSj7UhAEDoCcgaGPhrDAFSp32Y+R/s+4FdItYk9VlbAgCEELAyo6arCYuHSeqYJYQ7+839UH8mZlFSz7UpAEC4HJDVE3A1sE206iSVcgrJH+iDYxYl9VzbAgDAQWT3BFwP7BCrOEnFncP8D/Ivo1YkqY0BAAaHgFuBXaNVJym3LUi+L/irYxYlqbUBAMKthLNCwG3AbtGqk5TLS5n/4V0HbB2zKEmtDgAAh5I9JuB2YK9o1Uka6Azmf3DPj1qRJGh/AIDBIWA54U6DklpmA+Ae5n9oXxWzKElANwIAwGFkh4A7CdMIJbXIE0j+wD40ZlGSgO4EAIDDyQ4BK4BHR6tO0jxvZ/4H9TdRK5I0q0sBAAaHgHsJvQWSWuC7zP+QfjRmQZL+rGsBAOAIskPAKuDoaNVJAmAhydN4nhuzKEl/1sUAAINDwGrC5UdJkTyC5A/nTjGLkvRnXQ0AAI8lOwSsAZ4SrTqp515A8rxdSe3Q5QAAcCTZIWAt8JfRqpN67IPM/0B+M2pFktbX9QAAoat/Nel/l0nCvUgkNehc5n8Y3x+1IknrG4UAAHAshgBFsCB2AS2WNNf/ysaryGcJYcniZwA7AhNxy+mVSeBGwoqR/0EYxS0VcT5wPHAmYfGxucaB04BFwKcbrEvqpTHCiXxuEm/jyNw9gatI//bg1tx25czvQ80YlR6AWU8kuydgCnhNtOqkntiG5A/g7jGLSrAJcC3xGz63B7ZrgI2zfmmqzKgFAIAnMTgEnBqtOqkHHk7yh29JzKISvJX4DZ7b/O3/ZP3SVJlRDAAAx5EdAqaB/x2tOmnEPZ75H7h7o1aU7NfEb+zc5m+XZf3SVJlRDQAQQsAast9n745WnTTCnsX8D9sNUStKljROwS3+dl/WL02VGeUAAPBkBoeAd0arTp03HruAllqW8NiKxqsYzIamnVbGLkAj4VzgLwghIM2bgA8QBi5LhRgAkiVNxcn6EMZycewClOhHsQvQyDgHeCbZ55/XA/+O53MV5Bsm2aKEx+5vvIrBPhK7ACX6t9gFaKScTbgJ2dqM57wc+Die06Whncr8a23fj1pRuo8Q/5q32wPbh7N/XarQqI8BmOsvCV9Est5//4kLgUlD+Vu6EwDGCF2AdxO/8evzdhchOHottjl9CwAQLgesJfu9+CXC7cylTC4F3H3ThBsXfRw4CtgNWBq1on65j7D4z/dw8J/q99/AScAXSD9/P5twDngW7Ry7JLVal3oApL7qYw/ArBMZ3BNwDrA4VoFqPweMSFL3nE4YGLgu4zlPJkwl3LCRitQ5BgBJ6qbTgZPJDgGPI/QEbNREQeoWA4AkddeXgVPIDgGPJfQEeJMqPYgBQJK67UvA84DJjOccDnwb2KKRitQJBgBJ6r4vAn9NuF1wmkcCFwBbNlKRWs8AIEmj4bPAS8gOAQcQZjRt20RBajcDgCSNjs8yuCdgH+C7wPYN1KMWMwBI0mj5DPBSskPAnsCFwEMbqUitZACQpNHzaeBlZIeAXQg9Abs1UI9ayKWAR8MSQuJ/BrAj3gykL+4m3Hr4Y8BvItei9vkU4d4UWXcJ3IkQAo4GftdMWVK7dWkp4D2Bq4h/Mxy3eNs6wnu2b9L+PfRgs2MCst5DfwAeFqtAqU26EgA2Aa4lfgPk1o7tufRL2r+D5psdE5D1/rkdeHisAtU8xwB026k4iEcPeD+wKHYRaqVPAq8gOyBtRbir5cGNVKToDADddmLsAtQq2xJWfJOSfAJ4JdkhYFPgm8BjGqlIURkAus3Ru5pr99gFqNU+Drx+wHM2Ab4FPL7+chSTAaDb7otdgFpnZewC1HofYvCg0aXA2cAT6i9HsRgAuu3i2AWodX4UuwB1wocY3BOwBDgLeHr95SgGA0C3fSR2AWqVs4DrYhehzvhX4O8GPGcD4CvACfWXI7VDV6YBQggBsaefucXfbqZ/a7un/VuomL9j8PvrfuCZsQqUmtSlADBG6Mq7m/iNkFuc7Sz61/hD+r+HissTAtYBz4tVoKrnUsDdNw18kDC69yjCzIClUStSEyYJq7f9ELgmci3qvg8Qvky8L+M5E4QbDU0Q7joojaQu9QBIfWUPQPXewOCegCngVbEKlOpmAJDazwBQj38gXwh4XawCpToZAKT2MwDU523kG3/yj5Hqk2pjAJDazwBQr38iXwh4a6wCpToYAKT2MwDU75/JFwLeHatAqWoGAKn9DADNeDv5QkDWDAKpMwwAUvsZAJrzDvKFgP9LmE4odZYBQGo/A0Cz8oaAT+Ay853gQkCj42DgeGBnwvrdUpXWADcAZwA/iVyL4ngL4dv9mwc876WExcheSFg9UOqULvUAbAScTr5k7uZWxfZlwvsutrT6VK93ku998gX8kqkO6koAWAB8h/gNglv/tm8T/+SeVpvq9y7yvU9OBxZGqlEDeJ2m214EPC52EeqlxxO6eNVPbwLek+N5zwK+CiyutxyVYQDothfFLkC99sLYBSiqNxFuRz7IUwkhYEm95agoA0C37R+7APXaw2MXoKimgVOBj+Z47nHAucCGtVakQgwA3eb1TsXk+0/ThJsC/VuO5x5FCAEb11qRcjMAdNuvYhegXvP9Jwgh4LXAx3I89wjgW8DmtVakXAwA3faZ2AWo13z/adY08BrCSoCDPAo4H9ii1oqkkro0DfDbxJ8S5ta/7VvABHGl1aZ4xgg9AXneQ78AtopTpsAegK5bBzyDsDCL1JQvAScAk7ELUetMA68G/j3Hcw8gfLHartaKlCr2Qh4a3j3Ac4D3E5YC3gWXAlb11gDXAWcCP41ci9ptGngVoTfgFQOeuzdhMbNjgJtrrkvKpSuXAKQ+8xJAu40B/498lwOuA3aNU2Z/eQlAklSHaeCVhLsDDrILoSdg9zoL0oMZACRJdZkNAf+Z47k7AT8A9qu1Iv2ZAUCSVKcp4MXAaTmeuw1hhomrnDbAACCpq6ZSHve81j6zIeDzOZ67NfBdwnoBqpEfFElddV/K40sbrUJ5TQIvAD6X47mbExYLOqTWinrOACCpq+5Jedy15ttrknAXyS/meO6mwDeAQ+ssqM8MAJK66o6Uxx/aaBUqahJ4HvkWMNuE0BNwdK0V9ZQBQFJX/S7l8b0arUJlrANOBk7P8dxlwNeBY2utqIcMAJK66sqUxx/TaBUqax1wEvCFHM9dSggBx9daUc8YACR1VdqSxHYXd8fswMD/yfHcDQg9Bn9Ra0XqPZcCltpvC0IDkrS07CMi1qXiFgJfJd+ywbOXDzQkewAkddUdwKUpP3tBk4VoaGsJNzU7I8dzJwgrC/o7Vi3sAZC64X+R/C3xLsI0MnXLQuBr5O8JeE6cMjXKDABSN2xP+mWAN0esS+UtIgz4yxMC7geeEqdMjSoDgNQdZ5DcOKwAtotYl8rbADiLfCFgJc78UIUMAFJ3HEJ64/CViHVpOBsAZ5MvBNwEbBWnTI0aA4DULeeR3ji8PGJdGs5i4FzyhYALCAMEpaEYAKRu2QdYQ3LDsAo4Ml5pGtIS4FfkCwFviFSjRogBQOqed5HeMNwJHBCvNA3pCPIFgNV4LwgNyQAgdc8GwM/JDgH2BHTTGHA7+ULAmZFq7BwXApI0KtYQ5oWvSPn57O1lX9lYRarKNGFthzyeDjyxxlo04uwBkLrrOML88Kxvif9DWENA3bCE0L2fpwdgGrgkTpkaBQYAqdtOJn2BoNntHuAthHvOq91eQv7Gf3Y7Kkql6jwDgNR9JzO4J2C2a/lfgYPilKkB9gf+RPEAcF6MYtV9BgBpNDwJuJv8jcZ1wKeAlxIGDO6APQQxLAD2AN5EGLxZtPGfBqbwMo9KMABIo2N3smcHuI3u9vcolbMAJI26q4HDgHcTLgmoP54fu4A2MwBI6oPVhO7kAwhTAdUPDwO2iV1EWxkAJPXJbwnTBA8h3EVwMm45qtkY8PjYRbSVAUBSH10CnADsDPwD8DPCoDGNHgNAigWxC5CkiG4B3jezbQ48DngksBewJ7AFsCGwcaT6NLxHxS5A3eIsAEnqnicz/9x9L+FSgObwEoAkaVRcmfDYMsJ6DprDACBJGhU3EGZ8zLVb04V0gQFAkjQqJgnLBs+1adOFdIEBQJI0SpJuB+0gzgQGAEnSKDEA5GQAkCSNkrUJjy1svIoOMABIktRDBgBJknrIACBJUg8ZACRJ6iEDgCRJPWQAkCSphwwAkiT1kAFAkqQeMgBIktRDBgBJknrIACBJUg8ZACRJ6iEDgCRJPWQAkCSphwwAkiT1kAFAkqQeMgBIktRDBgBJknrIACBJUg8ZACRJ6iEDgCRJPWQAkCSphwwAkiT1kAFAkqQeMgBIktRDBgBJknrIACBJUg8ZACRJ6iEDgCRJPWQAkCSphwwAkiT1kAFAkqQeMgBIktRDBgBJknrIACBJUg8ZACRJ6iEDgCRJPWQAkCSphwwAkiT1kAFAkqQeMgBIktRDBgBJknrIACBJUg8ZACRJ6iEDgCRJPWQAkCSphwwAkiT1kAFAkqQeMgBIktRDBgBJknrIACBJUg8ZACRJ6iEDgCRJPWQAkCSphwwAkiT10ILYBdRsEbCsxH5LEh5bAGw2XDmSpJoltWtLKHf+XgncP1w57TUWu4CSlgG7z2y7rffn9oRf9EbAxsBErAIlSSNhElgB3AOsAm4BrgGuntlm/3tlrALL6koA2BZ4FHA4cARwMLAwakWSJAWTwJXAhcBFwPeB62MWlEdbA8AEcCTwbOA4YJeo1UiSVMx1wLnA6cAPCCGhVdoUAMaBw4ATZ7Zt45YjSVIl7gDOIYSBc4F1ccsJ2hAANgJOAl4P7BW5FkmS6nQd8HHgE8CdMQuJGQB2A14DvJgQAupwPx0cmCFJaoVlhNlkdVgBfAr4KCEUNC5GANgFeCfwHIZbh+BW4Dc8MALzmpntTuBewj9u6665SJI6ZYIwq2xDwlTC9Wee7Q7sy3CXrCeBLwD/CNw4VKUttiHwNsI0iukS2zXAacDLgP2aLV2SpFTbEcaufRj4KTBF8TZuzcz+mzRce60mgFcDf6TYP8YUcDFhbMBOjVctSVI5OwN/D/yY4mHgduBvGIF1bPYEfkixv/zVwBsI/4CSJHXZLsAbCb3YRdrCiwiXGDpnjNBVfw/5/7IXErpQRn15YklS/4wDTwfOJ3+7eB8hPHTmvj07AheQ/y/438CBUSqVJKl5BwFfJX87+U3CUvet9hjgNvL9hS4hrPYnSVIfPYbQ+52nzbwVOCROmYOdQr4R/tcTpgC2YREiSZJiGiMshncjg9vPVcDJccpMNkaY3pdnpOOX8Za6kiTNtTFhhcA8vQEfpgXjAiaAzzO42NuAp0WqUZKkrjge+D2D29XPEXGqYN7G/2xgi0g1SpLUNVsSbho0qH39LyKEgImZFx5U3MdxWp8kSUVNAO9mcDv7RRpsZ8cZ3PivIdzkR5IklfcSQpua1eb+Jw2NCRiUSFYARzVRiCRJPfA4Bi+s9y91F3Ei2aP9750pVJIkVedwwhfstPZ3ijCdsBYHASszXtzGX5Kk+hxOdk/AKuDRVb/oNsDNGS96H/DYql9UkiQ9yOPIXnTvRmDrKl/w7IwXmwKeW+WLSZKkVKeQPR7g61W90IsGvNA7q3ohSZKUy3vJbpufN+wLbAcsz3iB84i4EpEkST01Tvimn9Y+38mQdxA8K+PgNwKbDHNwSZJU2qZkj887o+yB/zLjoFPAccNULUmShvYUsi8FHF/0gBPA5RkH/GQVVUuSpKF9hvT2+tcUvFT/woyD3YK39JUkqS02AW6iggGBi4BrMg7klD9Jktrl+aS329cBG+Q5yKszDnIpDd1wQJIk5TZB6O5Pa7//ZtABxoArMw7w9DqqliRJQzuB9Pb7CkIbn+rojJ1/PGhnSZIU1Q9Jb8ePzNrxSxk7PqO+eiVJUgWypvB/Pm2nLYHVKTvdCiystWRJkjSsBYTZeklt+Rpgq9knrj+g73mkjxL8D2BtHZVKkqTKrAM+m/KzRcBJST+4gOTEMAnsXHmJkiSpDg8ltN1Jbfo35j55Gend/99qpl5JklSR75Hcpq8ClsIDlwCOJr37/7x6a5QkSRVLa7sXA4+DBwLAk0ocRJIktVNW2/2gNv+3JHcV3Ixz/1XOcWTfoSpr+3pNNV1UopYrChz/jhLHH7TtXfLvmuV3Fde4ZcX1XVhxfY/M+bovK3n8W4f4u0p1GSO8N5Pes5dD6AFYDOyRcoDzZ54sFfUd4J6S+x5F9dNONwIeXWK/s3I+b2tg8xLHH6SOAFC1fSs+3l4VH0/qo2lCG55kT2CDccIJJu1Wgb+ooyr1whrKDyAt21hnKRsqzs75vH1KHDvmcatUZQDYjOp7FKS++mXK4wuAPceB/TJ2/k319ahH8jaeSY6prIryx7ub0B2dR58DQJU1+u1fqk5WG77foABwecXFqF/OpvwlpDYEgPPIvwBWnwNAlT0ABgCpOllt+H6zlwCS3AncVn096pHbgJ+V3PdQwvoUVXgI8LAS+xXpwairod6b9g/ErTIA7FnhsaS+u5nQk5lk33Fgi5QfXldPPeqZspcBFgFHVFTD0RRvRCeBcws8v64AsCGwQ03Hrsp2hGv3VbAHQKpWWlu+7TiwccoP76qpGPVL3lH0Saq6DFDmOBcDf8r53I0JjWBdunAZoKrZCvYASNVK6wHYKisAlJ3CJa3vZ4Q7U5XxhIpqKBMAivRc1N1N34UAUMVlgHFg9wqOI+kBaQFg83Fgk4I7SUVMU6wrfX2PYL1bV5a0C+HGGEUV6bmou4HuQgCoosadgCUVHEfSA1akPL7BOGHOdRJ7AFSVsuMAxplZs3oIx5bY50bgVwWebwCopgfA6/9S9dK+zC8eJwy2SnJ/TcWof84n3G2yjGHHAZTZv+hSxAaAagKA1/+l6qW15RPjKT+QqrQS+G7JfYcJAGOU60Eo2mNRdwO9Fe1fHW8nwoyFYdgDIDXIAKCmlL0MsDvhOn4Z+xPW6C9iJeE+BnktotwYg6Lafk+AMYav0R4AqUEGADXlzCH2LdsLUGa/Cyh2uWJPwrradevDZQB7AKQGGQDUlBuBX5fct8kAUHTdgqYa5i4EgGFqXEL7FzySRooBQE0quyjQMRSfZ78AeGzBfcpMWSza7V12TYQuBIBhegD2wPOR1Cg/cGpS2XEAZdbyP5j0Ra7SlFm0qGij9xPgDwX3gW4EgGFqtPtfapgBQE36EfmX152raHd+mVUEywSUoo3eVTNbUVWMsq/brpRfyMcAIDXMAKAmTRJusVtG0QDQxPX/cULXdRFlA8AY7R8lP0H5Gtv+d5NGjgFATSt7GeAoYGHO5y4FDil4/DK3Lt5l5rWKKBsAoBuXAcqOA7AHQGqYAUBNOxdYW2K/jYBH53zuY4ENCh7/bMIgwCLKNMijHgDK1mgPgNQwA4CadjdwUcl9817Xr/vuf7OKNnZ3EwYAXlnitcq8XgxlegAeAmxadSGSshkAFEPZywB5G/aiAWAN8K2C+0DxKYCzDf81wLoSr9eFAFCmRrv/pQgMAIqh7HoAj2HwSPjNgQMKHvc7lLv7ZZkZABBuznFDidfbnfzjIGLZg/QbjKWx+1+KwACgGK4Afldiv0XAEQOe83iKv6/L9kgU7QG4KuW/81oI7FZivyYtJASVIvIGgKJjNCRlMAAolrouAzR1/X9rQm9DEes3+l0aBzBZ8PlFxwHkvQRwc8HjSspgAFAsbQkAvwauK1FHmYZ4/Ua/SzMBri/4/LoCQNnQJCmBAUCxfI8wKr6oA4CtUn62PcWvJ5cdj1C0IZ4Grl7v/7sUAC4v+PwiNU4QVhDMo+y/maQEBgDFshY4v8R+Y4Tr/EmOLXG8sj0RRRviW4B71/v/LgWAOyh2/4IiNT6U/IMG7QGQKmQAUExVXwYo2v2/HLi4ZA1lZwDMupkHB4K89qb4nRGrUKQXYC/CN/u8z81jJeXvpCgpgQFAMZ0NTJXYL62hT+sZSHMO5ebjQ/EAMPfb69xLAnktA3Yosd+wflPguYvJ362fNwBchbMApEoZABTTH4FLSuy3G6HreH37EMYAFFG2B2JjYLuC+yRNe+zSZYAiAQDyDwTMO2bD6/9SxQwAiq1sI3z0nP8v2v2/DvhGydcu0w2fdP16lANA3hqdASBFYgBQbGVH4c9t8IsGgAuBO0u+dtmbAOV5rK7XH1ZdMwHy9gAYAKSKGQAU2y8ptyzuMTzwLXyCcLvgIsr2PEDxBvh+kufSdykA/Am4vcDz81wC2AjYNufxvAQgVcwAoDY4t8Q+DwEeNvPfjwQ2K7h/2Z4HKN4AX0vyYMMurQYIxS4D7Mvg88ue5L+UYgCQKmYAUBuU/TY+e3vgot3/1xLuR1DWsDMAZt1FsW/Vs7YCtiyx37CKBIClwE4DnpO3+/82YEWB15aUgwFAbfAt4L4S+x0z58+8zizxWrMWMX8GwiBZ317LfrMteiOiKlQ9E8ABgFJEBgC1wSrg2yX2O5JwHfmwgvsNc/1/T2BBwX3qCACjMBDQAYBSRAYAtUWZRnkj4G+BJQX2WQF8v8RrzapqBkCen1Vdx7CqngpYZBEgSRUzAKgtzqLcSm+vL/j88wmj8svqcwC4nbB4U15ZlwDGgD1yHsceAKkGBgC1xc3ApSX226Tg879e4jXWV7ThvRv4fcbPR3kmwH6kj/LfjtCDk4cBQKqBAUBtMszUvDymgPOGPMawNwGa62pgskQdOwEblthvWEUCQNaSyXmv/6etoSBpSAYAtUndAeDHFLut7Vzj5O+2njUoANxPuYWQxsjfiFapqpkAea//X0P5GzZJymAAUJv8hOzu8mENM/ofYBfC/PYi8lzj79I4gKoGAnoTICkyA4DaZIpyqwLmNWwPQ5m593kasC6NA6hqKqBrAEiRGQDUNsN+S09zE3DZkMeoegbArKRbBecRIwD8gXBfgLzSLgG4BoAUmQFAbfMNYE0Nxy07zXB9RRvcafI17l3qAQD4bYHn7pfw2CLC5ZQ8vAQg1cQAoLa5l+EW6klTRc9C0Qb3VuCeHM8r28jtDiwsue8wiowD2IJw46b17Ub+1RTtAZBqYgBQG1V9GWAV8J0KjlN0DEDehv0myt0LYSGhMW3asAMB817/v5NiCw9JKsAAoDYadrGeuS6gXAO7vq2BzQvuk/fba95x0/2XAAATL0lEQVRLBUm6MBBw7jgAr/9LLWAAUBtdS7HrzIPE6P6HYo16n6YCGgCkFjAAqK2qWhRomngBoEgD1qUAcBuwvMDz5/YAeBMgqQUMAGqrqsYB/JJwn4Fh1TUFsMxz19eFmQBlA4A9AFKNDABqqwuBOyo4TlU9CUUb2rUUW8O+bADYm/Qb7tSpyDiAbXlg/MSmwFY59zMASDUyAKitJoFvVnCcqnoSigaAawkhIK+yjd0yYMeS+w6j6DiA2RkUeb/9TxFulCSpJgYAtdmwjffthPsLDCvrrnZpijbow0x568JAwNnLAHkDwI3A6oKvIakAA4Da7FyGuxPc2YRvksMq081epku/S+MAys4EcAaA1BIGALXZcuBHQ+wfq/sfRj8A3ELotciraA+AAUCqmQFAbXdOyf3WAudXVEPbA0CZuxRWocxMAHsApJYwAKjtbim53z3AiopqaHsAiDUVsMhlgB2BTQj3L8jDNQCkmuW9IYfUZ2W+YV9YYp/FJfaBMK1uS4rdprcKRQLAGPBEYGnO59sDINXMACBlWwTsWmK/MvsMY2/KhY5hFB0I+Iycz7uP8j0/knLyEoCUbU+6EZS7cFOgp+Z83lVUM3tDUgYDgJQt1vX1omLUeTNwd4Hnb5rzeXb/Sw0wAEjZDADZqrxr4ywHAEoNMABI2QwA2YpeBsjDHgCpAQYAKVusOfZF7QRsGOF1iw4EzMMAIDXAACClGyf/wjWxjRGn1joCwO9qOKakOQwAUrqdyT9vvQ26cE+AQX5PsYGFkkoyAKjtYtzrflZXrv/PilHvTVTbYNv9LzXEACClMwAMNg1cUeHxDABSQwwAUjoDQD5VXgZwCqDUkC6scCbFUmYGwAeAPw75ujsDryyx3+7AQsKdEJtUZQCwB0BqiAFASlc0AEwDbwPuHfJ1d6RcAFgI7Ea1XfJ5GACkDvISgJRsa2CLgvvcwvCNP4Qldssepwv3BEizFri+omNJGsAAICUr05BW9e11Gri65L4xAsCNwD0VHOcamr98IfWWAUBKVqYhrXIAW9ljdXkmQFe7/7cl/BvUtb22ub+K+sQAICUzABRTxWUAZwBIDRonvcttUZOFSC3T1QCwN3EWT6riroBd7QGQ2iytLZ8cB1ak/HCjmoqRioi1EmBXA8AywiyCplXRA2AAkKq3Scrjq8dJX8YzbSdp1G0MbFdwn/updgT7MI1hV+8J4CUAqXobpzy+Zpz00bv2AKivynSjXwOsq7CGu4DbS+4bIwBcz3BTIIf5+0pKl/Zlfrk9ANJ8sbv/hz1mF2cC2P0v1SOtB+CP48DylB8+tKZipLYzAJQzzGUAA4BUj7S2/LZx0lP75sA29dQjtVrXA8C+lVaR3zABwOv/UvW2BzZN+dlvx8kevbtf9fVIrdf1ALAFsGWVheRkD4DULllt+OWDAkCsbxJSLIsod/mrjgasazMBhpkKaACQqpfVhl8+ewlgMuUJB1Zfj9Rqe1L8Lpl3A3+ooZarSf9sDhJrJsDKEvtNUf7eB5LSHZDy+CRw1TiwivQP37G1lCS1V1u6/yGsLXBDyX1jBIApyn2Tv5FwHpJUnTHS2/CrgNWz//Mx0m9E8bB6a5QkSRV7BOnt+kfggZsBfSPjIMfVWKAkSarekzN+9qA2f0NgDclJ4YK6qpMkSbX4Lslt+mrCPUMe5NspT14H7NRIuZIkaVg7EdrupDb9m7NPGl9vh7NTDjQBvLieGiVJUsVeSmi7k5yT9ODWpF8GuCnjYJIkqR0WADeT3JavAR6StuOXU3aaBp5ea8mSJGlYJ5Dejn8ha8cnZOx4YX31SpKkClxEejv++KwdxwgLBKTt/JTaSpYkScM4nvT2+2pCG5/pdRkH+CUPHjgoSZLiGwcuI739fk2egywmLD+adpC/qrpqSZI0lOeR3m5fD2yQ90AvyTjQDcDGFRYtSZLK24T0kf/TwAuLHGyCcG/vtIN9vKKiJUnScD5Nent9BcXvcMqzMg44hXcKlCQpticR2uS09vqEMgcdA87NOOj1eClAkqRYNiHcTjutnf76MAffDliecfCv4awASZKaNg6cSXr7fBeww7AvkjUgcBp4+7AvIEmSCnkX2W3z86t6oXMyXmQKpwZKktSUZ5F93f+sKl9sO+CWjBe7Fzi0yheUJEnzHAHcR3p7fDOwTdUvehCwMuNF7wWOrPpFJUkSEL5oryC9HV4FHFzXi5+S8cLTwN3AY+p6cUmSeupQQhub1QY/t+4i3jeggLuAw+ouQpKknjicwY3/u5soZIJwT+GsQlYRegskSVJ5zwNWk93mfp4Gp+RPAJ8bUNA08OEmi5IkaUSMAW9jcDv7ZUos9TusBcCXchR3BrBZ08VJktRRmxNW8RvUvn6RCI3/rAWE9DGoyJsJ6xVLkqR0TyZ72v3s9iUiNv6z8nZTTAOnARtGqVKSpPZaSrhsnrXAz/qX1yfilJnsRQweqDANXAM8M1KNkiS1yRhhZb/rGNx+rgZeEKfMwQ4Dfk++3oCLCSsaSZLURwcD3ydfm/lH4Kg4Zea3E/Ad8v2FpgiDGPaPUqkkSc17BHA6+br7p4FvATtGqbSEMeBlhOWB8/zlpoELgRNp2XUNSZIqMA48gTC6P2/Dvwp4Ix2dTr8PcAn5Q8A0cAXwOmD7CPVKklSl7YFTgSsp1hb+GNgrQr2VWgD8LXAHxf7yk8APgNcQ7kYoSVIXbE/4InshoS0r0vb9aWbf6FP8qrQZ8AFgDcX+MWbDwKXAR4G/wt4BSVJ77ACcBHwMuIzijf7sCP/3AZs2VfRYUy+0nl2BdxGmPQxzXeMG4HLCtMKrZ/68ljBS8r6ZTZKkYS2d2bYitGG7A7vN/LkvsPMQx54iLKj3ZsJUwMbECACz9iBcF3kBsKym17iTMIhidU3HlySNpsXAEupbyv5e4LOERX2uruk1MsUMALM2Jiwi9HrCFEJJkkbVbcAngI8Ay2MW0oYAMGsCOJQwFfA5wNZxy5EkqRLLgbMJc//PA9bGLSdoUwBY3wLgGEIYOA4H/UmSuuUW4FzC9f3vAOviljNfWwPAXNsBhxOWDj4cOJCOLowgSRpJ1wIXEab+XUQYpN5qXQkAc21KGEQ4OwpzdtuWMKZgdsSmJEnDmp1ZtgK4lQdmnl293nZXtOpK6moAyGszwijOxQX3ezHwj3Me+wlhDQJJUnt9EXj0nMf+Bfh0weOsJswiu7OKotpopFYaSnAn5X55dyQ8tprQxSNJaq+kad934Pl7Hq+jS5LUQwYASZJ6yAAgSVIPGQAkSeohA4AkST1kAJAkqYcMAJIk9ZABQJKkHjIASJLUQwYASZJ6yAAgSVIPGQAkSeohA4AkST1kAJAkqYcMAJIk9ZABQJKkHjIASJLUQwYASZJ6yAAgSVIPGQAkSeohA4AkST1kAJAkqYcMAJIk9ZABQJKkHjIASJLUQwYASZJ6yAAgSVIPGQAkSeohA4AkST1kAJAkqYcMAJIk9ZABQJKkHjIASJLUQwYASZJ6yAAgSVIPGQAkSeohA4AkST1kAJAkqYcMAJIk9ZABQJKkHjIASJLUQwYASZJ6yAAgSVIPGQAkSeohA4AkST1kAJAkqYcMAJIk9ZABQJKkHjIASJLUQwYASZJ6yAAgSVIPGQAkSeohA4AkST1kAJAkqYcMAJIk9ZABQJKkHjIASJLUQwYASZJ6yAAgSVIPGQAkSeohA4AkST1kAJAkqYcMAJIk9ZABQJKkHjIASJLUQwaAZFMJj/lvJUntl3SuTjqn956NWrL7Ex5b2HgVkqSiNkh4bHXjVXSAASBZUgBY1HgVkqSikgLAmsar6AADQLKktLi08SokSUUtSXjMAJDAAJDszoTHtmi8CklSUVsmPLa88So6YEHsAlrqTwmPbQZMAJMN16L22BZ4B3Aoyd2MimcN8EPgLcDvI9eieBYCmyQ8nnROlxLtCkwnbFvHLEpR7Qz8keT3hVt7tj8CO6X8DjX6tiX5fbFLxJpay0sAyW4lvGnm2rnpQtQaHyK5a1HtsiXhd6V+emjCY1PAbU0X0gUGgGSrSe5GTHpzqR+OjV2AcvN31V9J5+hbcBBgIgNAuusSHtut8SrUFmtjF6Dckqbxqh+SztHXNl5FRxgA0v0u4bH9G69CbfE/sQtQbl+NXYCiSTpHJ53LhQEgy6UJjx3QeBVqizcAV8YuQgNdAfxD7CIUzSMSHrus8So6wmmA6ZICwB7AMmBlw7UovuXAQcCphGmAi+OWozlWAxcBHwZWRa5FcWxE8iUAA4AK25wwenTudJJjYhYlSUp0LPPP11OENVyUwEsA6ZYTuhPnOrzpQiRJAx2Z8NjlJK/sKgwAg/wg4bGjGq9CkjRI0rn5wsar0Mg4hfldSmsI15okSe2wKWGq7tzz9Ukxi1K3PYSw9v/cN9UJMYuSJD3Is5l/np4knMOVwksA2W4Hfpbw+PFNFyJJSvW0hMcuIZzDpdLeyvxkeSfeDU6S2mAxcDfzz9NviVlUF4zFLqAD9gF+k/D4CcAZDdeiep0MvALYLnYhqsUtwL8DX4hdiCr1LOD0hMf3I/ncLRVyGfPT5X9HrUhVex/xb2Xr1sz2XjRKvsb83/HPo1akkfIm5r/B7sdviqPiQJIHe7qN5jaJy3qPiu1JHv3/hphFdYWDAPM5DVg357GFwIsj1KLqHYOfhT4ZxxU9R8VLmL+k/VrgcxFq6RxPevncApyd8PirgaUN16Lqeavf/vF33n1LgVclPH4mcFvDtWjEHUdyd+KpMYtSJXYn3Ewmdte0WzPbapJvGqNueT3Jv98nxixKo2kM+DXz32y3AUsi1qVqvAbHAfRhmyT03KnbFhN6Zuf+fi/D2W25eTvg/KaBDwCfnvP4NoTrUP/WeEWq0kcJiz69FNghci2qx03AJ4EfxS5EQ3s5yYOw30s4V0uVW0Q4icxNnTfiwkCS1IS0b//XEwZnS7V5Ocldi38XsyhJ6ok3knwOfknMotQPC4Grmf/mWwnsEq8sSRp5OwH3Mv/8exVe0lZDTiI5gX4tZlGSNOLOIvnc++yYRalfxoDvkfxGfEbEuiRpVD2T5HPuD3Dkvxp2IGF1wKQBgRtGrEuSRs1GJA/AXgc8ImJd6rGPkpxIPxGzKEkaMZ8i+Vz7oZhFqd+WAdeQ/MZ8YbyyBDwNuARYQ/zFZ9y6ua0hvIeehmI6meTfz3XY26rIjgammP/mXIV3HIvlacRvPNxGa/sLFMP+hBlWc38fU8CxEeuS/iztUsBVwMYR6+qrnxC/wXAbre0S1LSNgN+S/Puw61+tsRi4lOQ36pdwhGrTVhC/wXAbrW0FatIY8BWSfxc/x5VX1TL7AveQ/IZ9T8S6+sgeALeqN3sAmvV+kn8PK4A9I9YlpTqB5PEA04TlK9WMpxK/wXAbre0E1JQ3k/w7mAKeFbEuaaB3kP7mfVnEuvrGWQBuw27OAmhe2r1WpoG3xStLymccOJ3kN/A64MR4pUlSaz2b5MXVpoEvEs6tUustJixPmfat4qR4pUlS6zyX9N667+KgP3XM5sBlJL+hp/D2wZIE8AbSx05dCmwWrzSpvK2AX5N+TevD2K0lqZ/GgPeSfn68AtgmWnVSBbYFriT9Tf5lwiUDSeqLxaTP859t/LeNVp1Uoa2BX5D+Zr8E2C1adZLUnD2An5J+PvwF4ZwpjYxNgQtJf9PfTRgII0mj6hSyV+r8PrBJtOqkGm0AfI7sucen4R2uJI2WJYQxT1nnvi/PPE8aWWPAP5M+6nWacAOMx8QqUJIqdBjZ46CmgH/Ce6aoR44H7iT7Q3EaXguT1E1bEL71T5J96dPF0dRLe5B+F8HZ7U7gtcCCSDVKUhELgFOBu8g+t/0C2D1SjVIrLAY+SPYlgdkFMY6LVKMk5fFk4Fdkn8smCXf7c3U/acYxwA1kf3CmgZ8RusxcQEhSG0wQ1vH/OYPPX9cDR0epUmq5pcC7Sb8hxvrbNcDrcBEhSXEsAp5PGLQ86Hw1CXwc2ChKpVKHPAr4EYM/VNPArYTutAOiVCqpbw4knHNuJd856iLgoCiVSh32dOBa8n3IpoHfEO6Z7aqCkqq0I6HHMU83/+x2I6GHwOl9UkmLgdcAN5P/gzdF6EH4P8AhhGt0kpTXBGEtkrcCFzN4kPL6203Aq3CQn1SZ2SBQpEdgdrsLOI/wYX4ysEPDtUtqtx0J54a3At8gzM8vep65Bhv+TrFrpnsmgBMI82yPGOI4dxEG71xHGJl7M/AHYDlh7YF7Zp63Erh/iNeRFMciYNnMf28EbEZYnOchhC8BuwC7AnsT7lVS1g+ADwFnEAb7qSMMAN22F/Ai4IW4YqCk5vyesHb/p4DLIteikgwAo2ECOJSwPsBzMAxIqt5y4GzgdMIlxbVxy9GwDACjZwFh4N+TZrZH4iBAScWtA34KfJMwLuDH2MU/UgwAo28jQiA4DDgYeBiwc9SKJLXR9cCvgZ8Q5u7/GLg3ZkGqlwGgnzYB9iUMANplZtuGMEBo85k/Jwj35nalQam7VgOrCN/c75jZlhOu4V8/s11DWENkRZQKFc3/B24Slho99tQhAAAAAElFTkSuQmCC;" parent="1" vertex="1">
          <mxGeometry x="408" y="530" width="82" height="82" as="geometry" />
        </mxCell>
        <mxCell id="XFlSbY_NoUcpt89pXaqg-9" value="" style="endArrow=classic;html=1;rounded=0;" parent="1" edge="1">
          <mxGeometry width="50" height="50" relative="1" as="geometry">
            <mxPoint x="448.5" y="630" as="sourcePoint" />
            <mxPoint x="448.5" y="700" as="targetPoint" />
          </mxGeometry>
        </mxCell>
        <mxCell id="XFlSbY_NoUcpt89pXaqg-10" value="Deployed Resources" style="sketch=0;outlineConnect=0;fontColor=#232F3E;gradientColor=none;fillColor=#232F3D;strokeColor=none;dashed=0;verticalLabelPosition=bottom;verticalAlign=top;align=center;html=1;fontSize=12;fontStyle=0;aspect=fixed;pointerEvents=1;shape=mxgraph.aws4.external_sdk;" parent="1" vertex="1">
          <mxGeometry x="415" y="920" width="68" height="78" as="geometry" />
        </mxCell>
        <mxCell id="XFlSbY_NoUcpt89pXaqg-11" value="" style="endArrow=classic;html=1;rounded=0;" parent="1" edge="1">
          <mxGeometry width="50" height="50" relative="1" as="geometry">
            <mxPoint x="448.5" y="830" as="sourcePoint" />
            <mxPoint x="448.5" y="900" as="targetPoint" />
          </mxGeometry>
        </mxCell>
        <mxCell id="XFlSbY_NoUcpt89pXaqg-12" value="" style="curved=1;endArrow=classic;html=1;rounded=0;dashed=1;" parent="1" edge="1">
          <mxGeometry width="50" height="50" relative="1" as="geometry">
            <mxPoint x="510" y="560" as="sourcePoint" />
            <mxPoint x="730" y="720" as="targetPoint" />
            <Array as="points">
              <mxPoint x="560" y="565" />
              <mxPoint x="630" y="590" />
              <mxPoint x="730" y="650" />
            </Array>
          </mxGeometry>
        </mxCell>
        <mxCell id="XFlSbY_NoUcpt89pXaqg-13" value="animus ensures state defined in YAML files are applied to resources according to implementations in animus extensions" style="text;html=1;strokeColor=none;fillColor=none;align=center;verticalAlign=middle;whiteSpace=wrap;rounded=0;" parent="1" vertex="1">
          <mxGeometry x="510" y="760" width="150" height="30" as="geometry" />
        </mxCell>
        <mxCell id="XFlSbY_NoUcpt89pXaqg-14" value="Private Cloud" style="sketch=0;pointerEvents=1;shadow=0;dashed=0;html=1;strokeColor=none;fillColor=#505050;labelPosition=center;verticalLabelPosition=bottom;outlineConnect=0;verticalAlign=top;align=center;shape=mxgraph.office.clouds.cloud;" parent="1" vertex="1">
          <mxGeometry x="402" y="1170" width="94" height="55" as="geometry" />
        </mxCell>
        <mxCell id="XFlSbY_NoUcpt89pXaqg-15" value="Public Cloud" style="sketch=0;pointerEvents=1;shadow=0;dashed=0;html=1;strokeColor=none;fillColor=#505050;labelPosition=center;verticalLabelPosition=bottom;outlineConnect=0;verticalAlign=top;align=center;shape=mxgraph.office.clouds.public_cloud;" parent="1" vertex="1">
          <mxGeometry x="229.85" y="1050" width="101" height="81" as="geometry" />
        </mxCell>
        <mxCell id="XFlSbY_NoUcpt89pXaqg-16" value="Data Center" style="sketch=0;pointerEvents=1;shadow=0;dashed=0;html=1;strokeColor=none;fillColor=#505050;labelPosition=center;verticalLabelPosition=bottom;verticalAlign=top;outlineConnect=0;align=center;shape=mxgraph.office.servers.datacenter;" parent="1" vertex="1">
          <mxGeometry x="582.5" y="1064" width="53" height="53" as="geometry" />
        </mxCell>
        <mxCell id="XFlSbY_NoUcpt89pXaqg-17" value="" style="endArrow=none;html=1;rounded=0;dashed=1;endFill=0;" parent="1" edge="1">
          <mxGeometry width="50" height="50" relative="1" as="geometry">
            <mxPoint x="448.5" y="1030" as="sourcePoint" />
            <mxPoint x="449" y="1150" as="targetPoint" />
          </mxGeometry>
        </mxCell>
        <mxCell id="XFlSbY_NoUcpt89pXaqg-18" value="" style="endArrow=none;html=1;rounded=0;dashed=1;endFill=0;" parent="1" edge="1">
          <mxGeometry width="50" height="50" relative="1" as="geometry">
            <mxPoint x="500" y="1030" as="sourcePoint" />
            <mxPoint x="560" y="1070" as="targetPoint" />
          </mxGeometry>
        </mxCell>
        <mxCell id="XFlSbY_NoUcpt89pXaqg-19" value="" style="endArrow=none;html=1;rounded=0;dashed=1;endFill=0;" parent="1" edge="1">
          <mxGeometry width="50" height="50" relative="1" as="geometry">
            <mxPoint x="390" y="1030" as="sourcePoint" />
            <mxPoint x="340" y="1070" as="targetPoint" />
          </mxGeometry>
        </mxCell>
        <mxCell id="XFlSbY_NoUcpt89pXaqg-20" value="" style="sketch=0;aspect=fixed;html=1;points=[];align=center;image;fontSize=12;image=img/lib/mscae/Docker.svg;" parent="1" vertex="1">
          <mxGeometry x="64.39" y="736" width="75.61" height="62" as="geometry" />
        </mxCell>
        <mxCell id="XFlSbY_NoUcpt89pXaqg-23" value="" style="group" parent="1" vertex="1" connectable="0">
          <mxGeometry x="60" y="600" width="80" height="120" as="geometry" />
        </mxCell>
        <mxCell id="XFlSbY_NoUcpt89pXaqg-21" value="" style="sketch=0;outlineConnect=0;fontColor=#232F3E;gradientColor=none;strokeColor=#ffffff;fillColor=#232F3E;dashed=0;verticalLabelPosition=middle;verticalAlign=bottom;align=center;html=1;whiteSpace=wrap;fontSize=10;fontStyle=1;spacing=3;shape=mxgraph.aws4.productIcon;prIcon=mxgraph.aws4.command_line_interface;" parent="XFlSbY_NoUcpt89pXaqg-23" vertex="1">
          <mxGeometry width="80" height="120" as="geometry" />
        </mxCell>
        <mxCell id="XFlSbY_NoUcpt89pXaqg-22" value="Command Line" style="text;html=1;strokeColor=none;fillColor=none;align=center;verticalAlign=middle;whiteSpace=wrap;rounded=0;" parent="XFlSbY_NoUcpt89pXaqg-23" vertex="1">
          <mxGeometry x="5" y="81" width="70" height="30" as="geometry" />
        </mxCell>
        <mxCell id="XFlSbY_NoUcpt89pXaqg-24" value="Other tools or&lt;br&gt;Custom Apps" style="sketch=0;outlineConnect=0;fontColor=#232F3E;gradientColor=none;fillColor=#232F3D;strokeColor=none;dashed=0;verticalLabelPosition=bottom;verticalAlign=top;align=center;html=1;fontSize=12;fontStyle=0;aspect=fixed;pointerEvents=1;shape=mxgraph.aws4.gear;" parent="1" vertex="1">
          <mxGeometry x="61.999999999999986" y="820" width="78" height="78" as="geometry" />
        </mxCell>
        <mxCell id="XFlSbY_NoUcpt89pXaqg-25" value="" style="endArrow=classic;html=1;rounded=0;" parent="1" edge="1">
          <mxGeometry width="50" height="50" relative="1" as="geometry">
            <mxPoint x="150" y="650" as="sourcePoint" />
            <mxPoint x="400" y="730" as="targetPoint" />
          </mxGeometry>
        </mxCell>
        <mxCell id="XFlSbY_NoUcpt89pXaqg-26" value="" style="endArrow=classic;html=1;rounded=0;" parent="1" edge="1">
          <mxGeometry width="50" height="50" relative="1" as="geometry">
            <mxPoint x="160" y="760" as="sourcePoint" />
            <mxPoint x="400" y="760" as="targetPoint" />
          </mxGeometry>
        </mxCell>
        <mxCell id="XFlSbY_NoUcpt89pXaqg-27" value="" style="endArrow=classic;html=1;rounded=0;" parent="1" edge="1">
          <mxGeometry width="50" height="50" relative="1" as="geometry">
            <mxPoint x="160" y="850" as="sourcePoint" />
            <mxPoint x="400" y="790" as="targetPoint" />
          </mxGeometry>
        </mxCell>
        <mxCell id="XFlSbY_NoUcpt89pXaqg-28" value="" style="shape=curlyBracket;whiteSpace=wrap;html=1;rounded=1;" parent="1" vertex="1">
          <mxGeometry x="10" y="580" width="30" height="350" as="geometry" />
        </mxCell>
        <mxCell id="XFlSbY_NoUcpt89pXaqg-29" value="Runtime Environment" style="text;html=1;strokeColor=none;fillColor=none;align=center;verticalAlign=middle;whiteSpace=wrap;rounded=0;rotation=-90;" parent="1" vertex="1">
          <mxGeometry x="-40" y="740" width="60" height="30" as="geometry" />
        </mxCell>
        <mxCell id="XFlSbY_NoUcpt89pXaqg-31" value="Version&lt;br&gt;Control" style="verticalLabelPosition=bottom;html=1;verticalAlign=top;align=center;strokeColor=#666666;fillColor=#000000;shape=mxgraph.azure.git_repository;dashed=1;fontColor=#333333;" parent="1" vertex="1">
          <mxGeometry x="229.85" y="546" width="50" height="50" as="geometry" />
        </mxCell>
        <mxCell id="XFlSbY_NoUcpt89pXaqg-32" value="animus-extensions" style="shape=image;verticalLabelPosition=bottom;labelBackgroundColor=default;verticalAlign=top;aspect=fixed;imageAspect=0;image=data:image/png,iVBORw0KGgoAAAANSUhEUgAAAQ0AAAFGCAYAAABwjcqnAAAACXBIWXMAACO/AAAjvwGm+t7LAAAAGXRFWHRTb2Z0d2FyZQB3d3cuaW5rc2NhcGUub3Jnm+48GgAAIABJREFUeJztvXmcHEd5N/59enpmL2ktZFkgXzHEBLwyBCxCwNhgxweXbU4ZYo7wIcE2JCQB2wmQD8jiCL6weSEvBMj7I+EIxCLJCwEDxkayLckmr22OWOKwOXxpZcsW1nq1u7Mz3c/vj5nuqa6uqj6mZ6Znt76fjzTVVdVPfbv2eb5dXdUHMTMshh/nXnPr2GPN2SPJ53XEfBgxr/LhPIHAT2DgCWB+AhirQPQEgF1mngRQAZgAWgUAYL/KoBVtkz7AByC4B4MPAlgEgwl4jIEZgGeYMcPgGQfODBMfIPiP+Uz7CLzXB+8BVu3duumUhX73iUVvQFY0hgNnXH7DIS7T77HjP51ATwH4SPg43AeOIvDhAA4FgFaQcycJANLfmDlSGmZKtcIqrMhrbckVWNFcWGc/gGlmnibCNIAHwHwP+XyPX/V+sXXTxr0JXWBREljRKBlO/+iNh45UcAIYz4Dj/x6DnsY+ng7gSa0aLP1EohhxwYhstTd7JxhR85m4zoLpbpB/Dxj3AHQ3+fRD1FbdtXXTKU1YlAZWNAaIc6+5dWyuMfc8OHQiAycw8wYwfqdV2nUQphMMsCJLsiMJRtiyYkTRA67zIPoRgJsd+N95/OH9O27/zPkNWAwMVjT6iHO3bKnM/Wb1iUx0GnycCsIfAhjJFITtZDwIW4miBENgkF8wesN1BoxvEehLzsih19tRSP9hRaPHOHXzttEVE/4ZTPRKZpwD8JpyBCFSXJbIgtFuJS9XgVsRXJnxkEP0zw3iT+788MYH4ztZ9AJWNHqEs67adjyIzwfjTQBWRQbj8txApiCM55mCsGUrp2AMD9dFML7q+HzZTZe/7qdxAxZFwopGgSCAzrrqprOY8B7AP7FfQRjJ7eVKSfm5NsH4PLN/6fbLX78HFj2BFY2CcNbVW88BnE1gPiF1EEYqyEEoFLK0T5iXEISKvD4srZaB60EAmw//pXP1tddu9GBRKKxodImzr/n+EczOJ8F4VSsnfxACijN36iCMtdhTweg/106dDFx/7Pj01puveN2dsimL/HAGTWCYcfY12/6CfefnHcFAYhAqKnRKehmEUAXhMHE1C4aG6+/7Du886W+/emH8CCzywo40cuDca24dW+D6Z33GGyMF5V+ujLYbibOycIViMrQIrv4X6+OTF96+6ay5WIMWmWBFIyPOumz7E6jmfRfMf2Ae6suO3XbtvEEYFi+/pdXiuNJtzcriWT/4+zc/Gm/YIi3s5UkGvOyTP5ikmvedVIIhId/qg1zdvFyZOwh7zVXVjupc1XOu/LxKs3rLye/54tGK1i1SwopGSpy7ZUul0lz4TzA/1+zYiG0UuVypbCBiK5qZi6uina64Fra0WgjX4zy/svWF7/rSOljkghWNlFh4YO0H4fMfJTs2Z3TsWBF0QdgpVp3D8wShhqvEozuuqt0GzvUpTbdy/Ynv3rJaUdsiAXZOIwXOvmrbKSC6kcGCyOZ3bEBxNmRpnzBPFYQsVUkKwk6d0nFF9gfmCuR68+LMwdPtA3DZYEcaCdi8GQ4c+lhUMJAoGOqxdTur10GoabAQrqpWVMkeCUbBXF9YnVxxWdyShQlWNBJw++RNf8LMJ0Rz484vOzbHqsnD514EoSqrYK6s45pnabXPXGU7rR3f9fyLv/hqRSULDaxoGEAAsY+Lo7kdR2ZpW6iR1bEPAJBeh5dvubIPXOPt9oprvEZGrmoDElcC6NN/+L4vHBonaaGCFQ0DXn71TacAPNXJSePY6uG04Ng+wDeA+M89B7+3UK+Ofec9Z676znvOHGtyZQ2RczITrmTgN53dVZEuN7wEl1YjzefhKo+IFELVwlpn0blSwdRCATsRasDZH9v6BQa9qbUlO3Y0r7UlV5Ad27+B2Pmb695z+g+T2j518za3Wlv4U/JxKSh41V9gSw7MXqw+pA9CYagv0+oTV6GQpX3ScgXYYZy082Nv3AkLI6xoaHDuli2VufsO2wtgTQGO7RHz3133njMuz8rjJZu/u5qr/DUApyqH+qUJwliLPeUaNV8QV8INt131pjNgYYS9PNFg7v5D/xDAGgBdOTaAhu/QK/MIBgB8Z9OL9x/SePwlDHy1iIfQErgqjSybB+YYp//hu790crw1CxFWNHTwnZbzdLkESMBfffeS077ZDZVrN21cdFfyW0D4gdjugJcrhUQKwdBwjViUuEqmw42ecnX4ElgYYUVDB8KGeHRldWz+6nV/e/qni6Bz3TtfWvfYew2A2Y79eLv5uUqFrAvCPCsl+oxQ5lhRIy9XoSArV/L5pc+xt5gbYUVDCz4hemLO7NiLfoXfVySjG//urAeJ+WMDWa5sF+iCUDIWyZPHA8lc1SOkPj3c51Yc/83xQosAVjQUeM5n76iCcQyQ37EZ/r989+Izf100t9Fa82MMPB5pVxWEkbjKE4TyKEMhVOKW8kSf8yG0gXOl1yhqWLRhRUOBJ809dhSAitGxES8UHZsJW3rB7et/c87jAH0nbDdNECJeWOoH5gbNlf0TTnz3/7EPs2lgRUMBalaOTnRsyWmjvkmPHzJ/4Kae8SP+r0xBqAowSHnhT1IQKvZO9cDcUHGteH7lNAUBC1jRUMIHr22lcjv23ddu2rjYK34e+buSglA9BGlnyfwzBSFLVeKjg3gQyuf3IeBK9Nw4GwvAioYSRFjVlWODp3tGDoDfcKRvesS5SjETbvR9aVV1yVEKrqqsyD7HxXawAGBFQwlmHNKVY/s42EN6qE24jwsMNMPwWE4fHkJTZES0tkxc9WLGAAhsRUMDKxpK8HhkK/wvkqN3bMLaHpJDc8F7kjzg7zSvHiH1abkyakgWjF5zVbWj1Jg0XOloIpBi72UPKxoqMNxOMo9j+4f3lB/xERKddjIPV3l8rzgDi1u5glDDVdFOV1wLe2AOALP7zIu/GDl5WLRgRUMBJlSBNI4dK2on6Klnf+T7RyhqFQJifpF86i3NcqUyCDVcJR7dcVXt1h3XkTlvpYLRsocVDRUYlS6XAGmx0nx5z/j5/jlpgjAKLdf0QVjqpVWWqsRFNCtXb8RboSC37GFFQwm/9aPw57RLgA77byMUf038Rx/61gaANkQa65JrcUEon99Z4pWBq6oVVTIt11hWMteqV7FzGgpY0dBB4exZHJtBzznjsu+8tmhaDvgyhGJUzuXKcFvilYkr67j28V2kFkpY0UhEBscWChgAMV116uZvrimKyekf+tYbwTg9wiRvEEpcVQZ1QZjqgTn5SiYzVxUG9S5SCxFWNIzI6NhtbxOqHz1Sdf/z3M1bat0yOeND33g2mD/TMa0e+pdjuVI2k4erPMoY1LtILWRY0dAin2PLNhg4aaa68htnXH7DIXmZnPmhb7yA2fkOgPHQatFcC12uFJPDzNVCBSsaBhS1XMnAi8lv7njxh74lTGAm4zmfvaN62oe+9dc+O98HWjeMDcty5VLhahGHm1zFQva4XMuVPq9nx/l/L/7wt78C9q/+7vtffoeutRdfdf2EP998xSr4HwDjaR07aRw7D1eWqihHTKZmkC8Iy8FVPQSx0MGKhgY9Wq4kJpwHovPO+PB194H4BjDdx8BeB/4o+ziCCccBdBrAY2kdu4zLlWXjGrEocZVMhxt1mbwFACsaSrAfpqL5hTh2mHU0mN4KAAQGs3hXR3rHLu1yZV6usp0MXLVDjA6DWB0jV3uXhhJ2TkOLXjm2PuhyOfagucZrZOSqNqDjqubVypMlPpmreoSknHOxCGFFQwm/k8zt2AqzS+5JULn5PFzlEZFCqKK0cnBVNZ+Bq0UEVjRM6Mqx42fHXI6taGc4lisNZ20N/9gR9PqBuTRcLWKwoqFDasdW7VagY0sNDe9yJUs/Obj2+4E5CyWsaBhglyuTuaqHIO0smX/Pucoy2AVXCy2saGhglyvVdWSukulwo+9cYx3WJVcG7KKrGlY0kiA4VDbHVmUV79hFLa1qhxgdBrE6XXEVCgrhGtHaXnG1AKxopMSQLFcmcFXzauXJ44FkruoR0nAurabpV4sAVjRMkB27k6ndbOXZ5cpScVW0k5qrRQxWNHRIceazy5VDwlXikZqrhRJWNFTwgbhjR6v02rFVrXV+koJQsXe/lyuXBFcLFaxoKNG6IzTqbxH3VJyu7HLlUHJVtWIFwwgrGhpkduxYVryO7NiS6XBj6JcrC+OqyiqYK+u4WuXQwYqGAtGHXJMdWzvECFOyY8dMI5NjCwVZg1DJNXJiLhNXvUAUx1UFu+BqghUNHeLep3Vs+Rwbc+yYafVwekkuV8pcVe0oNaZfXOVRhpWLJNj3aSjgoXoZOQufTqyYcMMgCf9H8zUvaiCFUcM7HRaMBaod078ggtD8pA9+WTS3gCAcphUoe0OoElY0FLjhvac9CuDRQfMYJE5631dnwRQLsGF6YI5VCsPSPim5WnRgL08s9DBGUJ4gZKlKfHSgvrzRC0a8QvFcLaKwomGhhh/PGtQDcybB0MV3UVwt4rCiYZGApHkMdeRlEwxVlmKOIlEwMnCV7Si4WqhhRcPCgDQTn/F9sgrGQB7uYzNXCz2saFgYkXWlJDaJadgMGjBPfMYmNTCwB+YsAFjRsDBg2SytpnlgziJEKZdcz92ypTLzwGFPdhveUT45Rznwj/EJ42AaB/NIq5bhT+vHEu2kL+fGd0s8xfihAVbkqdGq6RtM+xqu0TzZYtKZ3Fen5KYiidDIc2IkUwdhGq5D9HCfDnsvuQTEx6arnBfEIP8xAAfBzl6w9wtU3J/jsCv29rZdPUohGi++6vq1VdTOZPDzwTgBdOgzK+yPMxEI3HnoNPxjyo4gJHTOQozWZ4nE6ixVSXLsWDOtlPCho7yOTZEiBVeKcs2/XEmRPajTXLRm2n5VBmFRXI0V+sTVBD4HwEkZdsgB8W/GADmA7wMPXfwQwDcCuBEV/9tYc810b3l0MDDReMU12471PbyRwS+vonoCg1uXSlQWZxns05WZucayho9rxKLEVTIdbvT6gbkS44kAnQfgPHiVJh66+NsA/xOeeP+3gGu9XjbcV9E4dfO20fEVeCMR3gLGiSCmmCOUxFkG+XRl6bnKdjJw1Q4xOgxidQbGdWjALoCzwTgbe4/8GXDRB/Ckq7/Wq4Pqi2ic+6ltK+bn8acTK3AJgCPCP1rkZFciZ+nL05V95BqvkZGr2oCOq5pXK0+W+GSuccHrC9ehgHjsYfrpgH8t9v7VbeB3vRXrrvlp0a32dPXk3C1bKudcc9M75ufxGwY+DuCIVklZnEVBugyOrWqnG66R5vNwZam6QqiitHJwVTU/IK5DAaVgCPn0PBDfib1/fRFAhX7Kumei8fKP3fzC+QfW3sk+/28GDu2UpHQWxAuLd5b4GSeXYxfNdaktV3azUtJvrkOBoPNYOCbu5AdpxiiYr8L0X27B9AXjRbVe+OXJcz57R3Xd7ON/5xC9Hz47uZ1FcoThfbqy3FyVJMOfHFxzr0CVgGvpIR4jq/Mj/RKKyGuAkaPx8F+fjbUff6hbFoWONM752Lanr3t89r8B2gSWBQMDdBaWqsTPYkuZq6JCp0Tm33Ousgx2wVXVSm6uZYfQL+bRRbuco/sBfwDP+x4e/Ath1J8PhYnGWR/fdjoT3QrCswbnLFIyrWPHsoaPa8SixFUyHW4s3RWopSQYggCoxUAo1+R3BOUZIFyPX11wSDeMChGNs6/ZdiH59G0Aq4BBOssQLFd2wVWhxDKDWJ2uuAoF2bnq+7F0XEsL8XhVYiCkY4IipMNNBoATMFq7Fji3kpdV16Jx9tU3vRtMn0YwPzJMzjKI5coErmperbxobhquccHLxJWHmKuqnWHSC1EMUl2OSPsFaVbt55+J6TWX5mXWlWicdfW2vwbwsTBjmJzFLleWi6uinZ6vQJUSQoBnm+yMp2PHHOmzv8OeC8/IwzC3aJxz9c0XEOiaDokhcha7XFk+rhKPnq9AlRJCX+Sb7BTKFflhOQMMAtPncd87npCVZS7ROOuam05m8Cc6fIbIWexy5TLgylKVsguGIADdT3ZG7cnpaEcdAZevyMo2s2icc9XNTybGfwCotdoeJmexy5VDyVXViio5tIIRJFVi0E5zUG4QA62gtPdVCQrzn+KBtz83C+NMonHu5t01Jv4PAGuCRofHWYZpuVLBNdZhZeGqyiqYK+u4DvtKSRALLHBVCINJDCLlOkFh9X4tEOB/PMut5plEY37lvktb92G0mx0mZzFwDWWOFTXychUKCuEa0doycdX/zYvjqsIwP4QmBHUvJzsjnWcUlOfjgT97VVr2qUXj7I/f9HwAf9Phk8JZ4jUG4yxlWNUZJq6qdpQa0y+uLFVX+F6UVokhdFDvJzsVtoOkLCj0/rSjjVSicermbS58fBZAJWgwlbNE/tYDcha7XJmd6zCvQCn7vgwQgre/k51xG2qxehYe/FPpM5xqpBKNFSudCwAc37JdUmeJM0jJlYefq8RjmFagolxZ+imAaykgHocqkNtpDsoNYqAVlPa+JkGJjS6ktI/3pDmaRNF41ce3rQL40qDRopwligKcJXEJcJi4xprpI1eWqsRFdHi4lgFiwGrEIOyvBEHRiQFk2wobSrGSBAU4Cff+2bOTjihRNDymSwCsyeMsigqdEtmBBuzY5eIq2emGq6oVVTIt11hWWbkOGrGAFPKldOR48gqKwYZWrIKkkHb8C7SHFFQxFb7iih0rmfEOk7Ooybe2Y8caBFW/HTvmsWXhqsoqmCvruA7Bw32ynQxcBwtBDEo12SnzUwkKvQEPvXnCdHRG0WC3cQGAVfG/o/RHizmL4lj75SwqriwWlYmrPuiK46rCkDzcx2aual6DhBC85ZzslPgpbaxAo/pK5eG1oRWNUzdvc5nor0qxBJjWWcrAVdWOUmMGt1zZM66RporhaiJXKr2IcNcGZDtuE8RAKyjtfU2Ckji6EPkpbLTK36A9TBhEY+VKvAQ+H2l2FsUxDcpZlv1y5TBxVe2n5topVkldWVRDDNiEgNSJQaRcJyis3i9MqvIlQYHBRtA++2dg71sPix9nC1rR8JnelOwsUYGwy5Wq3SxXLcnwJwfXUgwz5IAU86V0RDDyCorBRpbJTlXbEUGBi0XvxdBAKRov++S3JwE+W0W6dM5ilytLw1VRoVMi8y+U6wARBly4EU3HAlIhBlrBaItBWK4RA6VvCGJmEhRd24SXKo4WgEY0qDH2agBjsfbFjFI4i12u7DfXiEWJa8z/gr9pT7n2Dn610jTX4KpWDMIfjRiE/acQmiBtEoNAUFT7iYIR20/HL9b2i3WvBFSLBpOgMuV1FrtcaeAq28nAVaHEMoNYnYFx7SFGuT6TUGVl60cKSAaGYLJTypf541DcO6Z8ZD4mGudu2VIB+LSIgdBsiZylL8uVfeQar5GRq9qAjquaVysvmpuGa1zw+sK1x9jv+LPmGjypDEidGETKdYKiCeQwqcqXBEUnBuGPwUaEn6+8RImJxsF71zwHwKHlcRYF6zI4tqqdbrhGms/DlaXqCqGK0srBVdX8gLj2GAws3P2Jd9YTqkVHGpFjUQhDKkEx2Ch0slO2LfMHAFI+wBYTDSKcltpZEC8s3lnkwLTLlfH91Fw7xSqpy8OVy8G1DyDgV8YKuzfXAF6pD0h00rGAVIgBK/JDEypBEdJ5JztFfiqRA5+A6fPWyIcen9NgvCC1s0gHMkxLgMPEVUky/MnBtdQrUAlc+wXCz43lqw88FYCjD8h24JnEINKnGhu9nOyM8FPaICzg+ZAQEQ0CCMBzo7v2y1lYqiLbLZNjF89VUaFTIvPvOVdZBrvgqmolN9f+gRi/MNfg45bAZKeBf7sOxUUj8gHol1yx9ffgYE1vnUVKpnXsWFY/HLtYrhGLEteYfwVB1VOuqqyCuXJxXPsJBt1mruEfJ9aOpE1iEelPg6CkKtfU0bafVK7iRydCQmSkUanQ89Q7t7aLcZYhWK7sgmtcpKR9YlwVf8MsXIWC7Fz1/Vg6rv2FX3MatxhrMJ7RYisGZB7BkGyYBIOhEQyh7cJHP/gDbDs1MriIiAb7eF7pnGUQy5UJXNW8WnnR3DRc44KXiSsPMVdVOwPXCwDAj3/wD3/+qL6YCOBTOtuqgFSIQSwgVQEr5Yd/FIMYhD9JYmUSFJ1Y8TiecvjvC5nSRCjxiaVyFrtcWS6uinZ6vgI1CDB93Vi+553PAnBYGHgmMYj8jVVBLQesIt3byU4FP8mGx5FLlFA0XnHFjpUA1ss27XKlSurycOXh5yrx6PkK1IDAFfqKsYJDndsSTAE5LJOdOsELJ0M5MhkaXqssuovPdXyulMJZ7HLlMuDKUpVyCAaAH/zoH95mXjlh72VgglYsIn1oEJRU5Zo6WrFKKk/DTyrn6ApKONIgz99QDmexy5Vy4XBzlZLlFgwQ4VPGCtN/8TtgelG2gORounSTnUJaPfo5Bve+Zl2w0RENouOVByDBLlcauMY6rEuuXFwQDtUK1IBAwP1OM+HSxKc3A9yOG4UYKAMySCoDspMe2GSnwE/ZNgOohl9W7EyE+u3vmgzSWQyOzZ3G4jXychUKCuEa0doycdULRHFcVSjfQ2gmMOjy2z9zfsNYiYJX4akCVpEflpsCElCPLiCVG2ykEhTE91Pyk9sG0PTDQYUDtJ9sJTw9rDYIZynDEuAwcVW1o9SYfnFlqbpCqKK0Sga6Z9at/5Oxyt53vhTA06LHKgasRgxMgsIwC0qkXGEj3MUgBkp+Mn8dv/Z+TudKxAWAhfsOeyrgjw3dEuAwcVW0s2xXoJR9P1gQ6C8Tn2r1/fd1NhKCDYDx7B0p19SJ9ROnLE/DLwt/AMzRkYbn8/qhXAIcJq4Sj2FagYpyZemnAK6DBuNrd37qbd821tnzjtMBnBTsED9AjqYHNtnZbpsV+4XtJwhGhF+wH08Fb/JqzWmw94zo/gaP7sZZEpcA8zt2/7nGmukjV5aqyHaHieuAwXig4tPbkyvSB8wBGSSTAtIgBuGPSgzaaZMYKMVMwU/Zto5fuOMofo1jgbZoMNHxKh/p/3KlTDXq2IoKA+Qq2emGq6oVVTIt11hWWbkOHL4P/pPbP3P+I8Za0+84D+CTzQHJKQPSYGPQk52Jo5/WZGh7pNGaBBUrD/1yZWFcVVkFc2Ud1yF4uE+2k4Hr4EEX/fjTF37fWGX/X07Cx5WdY9KIgUlQIgGpEYMyTHYq+Yltt+Y1gjtCjxYr2eVKcRd90BXHVYUhebiPzVzVvAYPAq6+81Pnfzyx4lzz70E4XBlsAIxn70i5pk6sv3QBq7FhEoPE8jT8Inkt0XjVx7etArCyb85ilysV5liqvsQf7hswGPTFHz1x+pLEig/++akgXBgL5CBtCsjSi4GCUxI/5mMAwFmsN4/qm7Ms++XKYeKq2k/NtVOskrqSqQbjUz9+4vRbeNMm31jv4bc9EfC/DHAl2LFjI0kwWMiX00D876wSDION1IKhsaGf7FTwE+viKABwGc6RgG+XKy1XNcnwJwfXcg0zmJg23fnp8z+UXHWzg4b7JQDt5y3yBKymTu7LFV37WdrW2U7d9lrc87IRFw4fFf2D98BZ7HJlabgqKnRKZP6Fch0oHoWPN9/5j+dfl6r2gw9dCeD0/AFZsBjkFqsiBEVsnwmee7gL9o9kJoWBXjq2ZKcbx1a1okqm5RrLGj6uEYsS15hvBH/TnnIdKLZVPPqT2z9z/n2pau+58GKA3q0OuCwBK6S1AZlXUCQbuQRFbD8Df3KOdJmd9pxGb5zFLlcauMp2MnBVKLHMIFZnYFwHg/0AvfdHnz7/c6qBrhJ7LvxjMC5PHZClFwMFp674MUB0lAPitb1zbH3Qlc6xh2m5sgwrUGm59h8zYPpIY9F96g8/df5nMwjG68D4Z4T3LiUJBgv5chqK/lEFpMFGasHQ2Mg92ckGfgDAR7rweQLC1Uk+Z5F3QjkcW9VON1wjzefhylJ1hVBFaeXgqmp+QFz7CALuZ6b/45H3iZ98+u2/zbTzngvfAcYnATjZAlZTZ7gnO/W2W79HuiCMR+vncRY5MO1yZXw/NddOsUrq8nDlcnDtBwgPgfk7hMqXfvjEPd9PXEaNGyA8cOEmEDYByBiQBYtBbrEqQlDE9hP5P8kFMJ7eWRBB4Y4tNWSXK01cY82Uh2tvsB+EnxPop8z4H6+CG//nH86/K/XlR8zaX05i/sJ/AvFGAMIxZAlYIa0NuLyCItnIJShi+0UJCo23RANpnYWlKvLfq0yOXTxXRYVOicw/mesjDOwG8FOH8DMfvNfxnVl2eBbsPR5eMgZofzMzRCNSFEu1qshGlDuptxvRgmix2KL5RVd54TH5PvGBMcc/sN/xZ5XvuvhkTuMPnv8sgLYAdGxiQJZeDBScuuKXWD7hgjFhlyvVdWSusf4PBCAd130AthHTDX7Vuf7Wj77+N7DoL+64oIon0rtBzqUARvt3djaVG+oUOvopQlAAwJ9wGTwW32cIliu74BoXKWmfGFdF/6bj+jhAW3wHn//B5X+8I/dQ2qJ77Hn7C/Ak+kcAxxdzhi9CUMT8vGKgsNGVWCWVC5cnYmH2INQLBAv/SzUyBqEKpV2u3E1EV836zWt/fOWbDgIALlMegEWvcf8FvwuHPgDgTQCofMN9KV2OyU4Tvwk3zGkbiwWUYbNtJF0QRuIqcxDG8uJkJBa5uKqaz8R1F4OvOPI31S9fe+1GT8HAol/Y+/Zj4PF74dBbEbwCwk52puCX2Pa4C2Ae3Hk0Xk0w2IzXyRWE8j7x5qT91ILRKVZJXR6unIsrAXsBvnjHlef9q70EGSDuuKCKwysvh4+3AvxShO+LSQjI0ouBglNX/LLwj/GbcMFYAHhlpJocb8pMu1zZaoi/1Kg03/WDv3/zo7hcUcWit5i+YBxN52RU8DI8yXk9fPkO5wGenTMFZFkERbIXLx91AZ6LZEmNKINQcQ7CmV4QAAAgAElEQVROCkJFhU6JTCyTYOThKstgHq7+fQ7RG2657Lzt8VoWPcEdF1RxuHss4EzBb04BdApQeQEcHlGeTbs+wxchKBKn1G3rbPdMDNLy81wQFqJilyIIY1nxOnIQxo4xEADNmbxnS6sxJcjD1b/Rc+kNOz7yxw/J1rPh3Ar2Hflk+DQFwrEA1gK0Ej6tgIOxxN1LB+GGTF+huEF5vIPVNphHQFgJpknAX43D3SPBqII9tO4VKcvZOUvA6vgVIShi+3kFRWxf2XbTZca8iog6CCU7UkZ4/mZFjbSCwZJgCAXZBEPDVez37Fx9Yv/9O64876O55y72/c2z4PlngnA6cPRJQFscRGsU51V+BB1bsMOLD15xlw7fFb+8giLZyCUoYvtd9G8xfdN0QbTQOivI0aMKwhI8hBaP6n5xbQJ8/vYrzvs8rog3Z8RDl6wF8ZvAeCuAqdjdl0ONvAGZV1AMNkwBWXoxUHDqil8W/jp+yvJFl5gPxsJLEYN9WK6MB7NKIHrJVdFO2/4csb9x+xXnpXvzU4A9Fx2FCi4G6HwwRjPtOxQos8OL7WcJWF37eQVFbL8sgiLZy9a/My4zTyNWVQqgHi5XRo2oBaNTHGNRLFeJR0cw8JLtV5x3i4K5Go+9axXqzodQofMB1FLvNzTI6/BieiAOr+BXhKBInFK3rbNd4r5hOuAy6EESwy9xuTJ/EEqGpZ8kwVDs3fulVY99vHHHla9PLxgPXXI2qPIpAEem3meo0A+HB8p3ds7LX2NjWEc/5M+4BP9BgNRBiGW9tMoAvW3nla/7z3ipAo/87Up43ucAvE6pkUsChjNQpFyTH6RLJShiugjByysoYvtd9G+v+wb8W9chetBj2VirUm+WK6M2Svwu0g/uuPx1n481pML0xU+Hg68BWJ+q/tAhr9PlFRSDDVNAll4MFJy64pdXbDU20vBnTLs+/AfBiul8VRCKxxYLQsUxmwSDJcEQCrIKhuk+kXxceesRv3ZTfB8DwN53vwiO8w0Ak6nqDx3K7PBi+1kCVtd+XkER2y+LoEj2CutfnnYri/Rg00UUZVhaVbWj1JjCuT5Ucb03XHvtHyc/cPbQRWeBnGuBYbwRKwl5HV5Ml83hs/LXtb+s+2bancfY3irmPQCVwIg5CBW8YoGZRjBYqi4LBCs243UK58r05ps/8sZpJOGhi84C6D8AVBPrDh364fBA+c7OeflrbCzF0Y9DDzhbN53SBLA3MJIchBxtN1ZBFgwVL7VgKPsgXopecSXGv+644nXXK5hHsffiPwDoq1jSgsGIOkwewTDYSO3QGhsxfjJ/nW028JP5G2xo+cn8dfxM/ZsgGKzjL9g23wpuEDwWyhU2PO+e4MLkZ2A+IhbnOYPQZKS07yIlzABI/pL4Q5c8GYTrAEwk1h0qZHV4U7kmP0jH/gYZAtYoBnnalmwYy5Hx2PvcN1p+efnHbDQx//i9rQ/DEN8VD0IpmKUgVESpgle0sMzvImXgfdsvf/2eeA0Rm12AvwxgjbnesEF1BpLPNCyVC/sF6XAXjQ3tGTJIJgmGgpPMPzEgDTZSB6TGRqbRj6Z/dX2TSvAMfRPhr+OX2L/3YsPtDRcA2OPdIIobURJubcf+Pu2NVCslQp1sgqHKKoKrf9/MWPVzscZk7J39KAjPT6w3NMjiUJr8TAFrsJE6YHX88vLXtW/7Jt4+fgq032zkO7jL4Xglju+kbiOLYAgFWQUj1dJqvEYiV4Lz0bs2bVxUkOzg4YtOBNFFxjpDhWFxeAWnrvhl4a/jV4SgiO3n7V+x/T70L+EnQPu7lY47sitkmBiEsogkCUbMQGBFczDKZpF6aTXSfCqu09XxhX9WtCjg3Ap8+gfEvw4ypBDPQKLD5BEMg41MDq9I28lO9X5heULf5J3sDMulfN//EdAWje/97ekHCPygIu7iQYh44VAurXby/9fWTW9ZkHMj2Ps7bwfh2cY6QwE5IMV8Kd2NwysDUhaUoh1eEiuToKQKSM1xxfhp+qbbuR9d2wE/1XGl+tvJbSts6Pqm4nRGGq12aHfUFEd5xqJUF4TxOjJR5d8jXhoQSyEY6bgqWmsSnC8qCjv4zeZREL/PWGco0EeHVzpdkEwKyLwOL/DTiYFSzBT8lG3r+Mn8od7PGJAyfx0/WVA0/as6ru779zE8bevdgCAaYN5VQBAKP2kEg6Uqst0ePzAHfDdxxWR05k8BrDPWKTXyOjykur10eJGfwUYvRz+DGO7LfaPsX5Gf5riU/HX8NDZi/CQbzDsB9oHwFe8AE+6MGIiRQgyDWlqNWJS4xv4ugVipuDI+DyPOrYCOvthcp8xIIwam8nY6UQxM5UghBgpOXfHLwl/HLy9/Xft5+1dsf4D9S3RrkBOKhud7t1Ucp9sg1AhGKT+duFibcL8bb1jAviPPAHCMsU5pETiEdXh9+0UIXhf9W2jfiOke9A3zzmArvDzZuumcewBE3q6dXTBUKMX7PVVcb926aeOsknIA33mzsbyUYKR3aKEuFOnMTie1PdTDfUj8dfw0NmL8JBtlnewU+Xf2W8BkIxxpdOY0WuX/3UlmDsJYXjy4JSlQqUzelZKsXJlvVLTewSN/uxLgVxjrlA59dHil0wXJXjm8wC+9wxv4GQRFJ1Yxfpr+1fVNIj9ZUNL2r8gvoW9M/av82/q34Mid80GVqGgQ3daqrg727lZKYlIgEUdKwWCpqXxcmfj7ihodeM0XATRurFMa5HV4SHVL7vARfhobMX5S3wz16MfUv2zgL/BTHZfIT7Uf0feEDETepMG+f1t4+5KSvHwQwU+SYCj2lqM6JhixZqAVjOxcmRfwP4rKwm7OqSCVvbIhjRiYytvpRDEwlSOFGCg4dcUvC38dv7z8de3n7V+x/RL2L3t60XAnRn7QnKs3wZBfyxMf6mcSDJaqyMHYq08nark+eNsn3jAT3zNi5VRzeRkQHJh1eH37RQheF/07TJOdan73Yv2OHwmF0cuT71585kEwdss7931pNaYEccGI9VUGrtR+8EaPzS6ozO/7ZKR3aKEuFOlcZyDB9lAP9yHx1/HT2Ijxk2wM12Snmh/h/0KCI2cQcJu4c6qlVaEgm2BIfDvGRQaxOpkEQ8HVZ75bQb6DR2aegtJ+r6SPDq90uiDZK4cX+HXr8Mq2dfwkG6a+0fKT+ev4yYKStn9Ffgl9Y+rfVGIbpr8OCTHRYML25CCUd2r9pxMMyVgkL5qrEIxYUzKB7Fwd4LdxMgI852nG8oEgr8NDqltyh4/w09hI6/C6vin16MfUv2zgL/BTHZfIT9d20H4A4n3YV4198yc2d1FhvtGL7KsKwmhePDQlKVDoRe6lVUU7Wbn6rbd06UF8hEKvBog0YmAqb6cTxcBUjhRioODUFb8s/HX88vLXtZ+3f8X2h6R/GdfilK1NSIiNNK7fdM4egOLX/JrAjIVmr5dWJR55loEBelyxVwc+rTSW9xXBcUtnjFyCYbCRyeEV6aU83E8SjCzDfV3fDGT0I/OX8/1/hQIx0Wjt5t8QOygIgRvmyYIh20E8qvu7tKrkyj7Md4KCV5jL+wE5IMV8KW0nOw38TILCBv46fpKNpTDZGdsPAHAvjr/1ViigEQ18I59gsFRFDu4eL62qWlElWTk+ETDom7pUAdkjh1c6XZDslcML/Ap3eJmfwYapb7T8ZP46frKgpO1fkV9C35j6N/fopw3ClxUBDEAjGsAh2wA80qGSFITRArVgqLLioiILRqxfArFS/cFYx1WepC0rTAGJaFrrMEPg8BF+Ghu5HF7om6U++lEdl8hP13bQvtK2AOKvqAs0orF10ylNEP4rFoRCQ1kFQzXqiPh/TDAUf7dEwVAhYVWnNOjG4UWHgeI4i3R4kV9Oh4/wUzi8SVCGcrgv8zPYMPWNlp9gI5OgaGPhRzhux126Qs1IA4CPf4uZbBPmeKZ2s5XXr6VVlqoncC0NunX4drovDq9x1hi/IhxestfT0Y/MX2Hb1L+lHf3I/GUbSnzBVKgVjRc5P/oeg++L8pMFghWb8TpmwUBsI+tDaDrBMHEtB+SAFPOltJ3sNPAzCQob+Ov4STaW7mSnCnMg/19MFbSisWnTJt8B/qXTvhSackwqM3u1tKquk5ZrOaAKyB45vNLpgmSvHF7gV7jDy/wMNkx9o+Un89fxkwUlbf+K/BL6xtS/3U52KkFfxtTO/aYa+ssTAOzg/wPDUwdhJOzlqIYQ/ohWzC4YJiO5VnWQ/EH43sEUkIimtQ4zBA4f4aexkcvhhb5Z6qMf1XGJ/HRtB+0rbSfAoX9MrGIq3Lrplb9h4N8jzaYVjFiWFMySYCgURd41VljUqk7/0I3Diw6D2LEV6/Aiv5wOH+GncHiToAzlcF/mZ7Bh6hstP8FGJkHJ5O/bcdzNdyZVMooGAJDvXZk1CPu+tCrbycC1f+jW4dvpvji8xllj/IpweMnekpns1PRNeSY7FeD/naZWomhs/fBrbmfgxtRBmGZpNV4jo2CoDegEQ82rX5ADUsyX0nay08DPJChs4K/jJ9kofLJT5q+zLf9tdfw0xxXjx1Kd1JgGHfiPNBUTRQMACPzeWNSpeKVdWo1ogKwCaQSDpeoKoYrSGhBUAdkjh1c6XZDM6vCSDa3DC/wKd3iZn8GGqW+0/GT+BhtLbrJTAeKrMHWX+XvGbaQSjW0ffPX/Q3tuAwg4SgT7sLSqMNDZJ0pOtqgw2EuYAhLRtNZh8jq8ZGOQk52FDvel4woDLqFvTP2be7iv46/jp7GRSawUNvJOdsbxEObriROgAVKJBgAw+H0AFpRBWODSqtxq9CdJMBR7ywrEDF/RUnHoxuFFh0HkGGM2hmGyU9d2wE91XKnESm5bYcPUN8qA1fEz9K9qPyU/Tf/qxCqzoHQlGABwGTbcPpe2cmrRuOlDr7mbGR8pYmlVUaFTIndWJsFgqUoKroWiW4dvp/vi8IagLtzhJXt2slPDjw38ZP6yjdz4FUYmP51lh9SiAQBOdfVlBPy4k9OHTyd29ogVZRMMZVZBkAMywiSatpOdBn4mQWEDfx0/yYad7IzDcS7CsdfVM+2SpfLWTac0faa3Amg1EuMtBW5MMBT9ahIMlgRDKMgqGL1TDFVA9sjhlU4XJLM6vGRD6/ACv8IdXuZnsGHqGy0/mb/BxnKY7Izjehx3c+zFwUnIJBoAcPNHXn0ngd+deqUkUkMWkSTBiBkIrES2o3XUglG8ZJgCEtG01mHyOrxkw052avixgZ/MX8fP1L9s4C/w0/VN7G+nsFHcZKeMg/Dp7Xl2zCwaALDtw6/9FDOE5+1lwUBso1Sfeez6LvJuHF50GCiOK43Diw4t76fjl9PhI/yKcHiJv1as5LYVNhIDUnNcMX6G/lXtp+Sn6V9d20p+pv4tVDAAwkV4xi2/yrNrLtEAgP0j/BYAN6oFIyoQZfzMY3506/Aij147vCGoUzu8xoaRn87hkwRF5NdF/9rJTjMI/4ap7Z/Ju3tu0bhr08bFSs19LTPuAlIIhrETWPpJEgzF3oql1VhLXfW/HJAqo2kcniPHpLQRO9C8Dq+w0TOHF/lpjkvJX8dPYyPGT7Ix1JOdur4pEISfo9Y8vxsTuUUDALZueuVjfsM9zQd+2Mph6ThlwRBKNArQv3eRZoEqIHvk8Eqnix5DNN/k8JINrcML/HI7vMjPICi6tmP8NP2r6xslP5OgpO1fkV9C35j6N7fYFopp+PxyHHtbwidJzehKNABgx5WvenjMx6kAbpEFI9aHgQCoOodVgiElUwmGKkvOSDupYQpIybbWYfI6vGTDTnZq+LGBn8xfx8/Uv2zgL/DT9U3sb6ew0bvJThGPgnAGjt/xy24NdS0aAPC9yzYeWDm74gwAnwjyuhIMoSCrYKhGHZG4Tv1H6cbhRYeJc0/n8KJDy/vp+OV0+Ai/Ihxe4q8VK7lthY3EgNQcV4yfoX9V+yn5afpX17aSn6l/eyUY9ADY+SNMbd9VhLVCRAMArvvES+u3fPTcvwLznzB4NptgSGj/ITieqd0MGojtk0sw/NBePocX2+61wxuCOrXDa2wY+ekcPklQRH5d9K+d7EyLH6LpPQ/H3/yTogwWJhoBbrnsdV+Az09jwhdbOWkEI5oXFwhWbMbrmAUj3rwRdrJTfVwhP81xKfnr+GlsxPhJNuxkZxowwJ+FN3Eyfn/ng0Uajn3LtQhsv/z1ewC8+eS/+bdr2cEHmfHsWCWNiMRkRNYGZWb2B+bSIYtDyW0YAlZnGzA4vKk8K78s/HXtZ+Gv41eW/hXbH0TfFI6fwHf+Es+4+aZeGC98pCHilite980dl79+AwhnAbgp7LXQP9IIBktV5M7O88BcGhR1BlJxyHIGyurwOhsJgmEnO1MIhqF/yyEYPwPRG7B+x7N7JRhAj0YaIlqDgNd/C8C3nv/erx7j+PwGAK9l8DMRiJasHWEihWDEsiThiQlGmj9Y8PB8kljI9nUObyqHwaFU7WcRM137Wfjr+OXlr7DRVf+K7Q9T/xaGR0H8dcD5PKZu2d6LBmT0XDRE3PrR1/8GwEcAfOTEd29ZjWrzhfD9EwH6PYCfyuDfBWgknWBA8TeIi4osGAyAUrHN4jBLyeEle10Lnu2beJ3ceASEu8G4G8CPQLwVUzt/AnBvXxEjoa+iIWLn1Rv3A/i/7X8hTnz3ljEAY000VpktaJ7mlRWB4ptz9fmHU5EsZP5AzC/L2TmNw/vvRKVyHWKoR36SQZq0jIW0BgVzJtv1tGcHjY0ErpnpZibT3s1pgP1Z/GzdDDZeO8hvb4QYmGjosPPqjfMA5gEYP9jSU/gAqOjhaJJgFCEoYvvdnuGdh3H0l3M90GTRAzxj0AQ6KJ1olAPSnIaYLvNwP4lfpuF+KU5qFiWEFQ0t+i0Gkj1jeRp+RYx+LCzisKKhhI/ONWhRw/005Zo6hQuKZE9ZbmGhhhUNLQqYPyj9ZGcCPwsLBaxo6NCT4X4RgiK238PRj4WFBlY0tBjgGb5vk50G25RzidBiycOKhhLSnEbwO0gx6Nlkp6ac+W349WtPgwhfth0paP/o7jPSjWKE+sp7lFLsF2nfsF+MXwLXZvP9eOaOdPf0LCNY0dCi4OF+KSc7jfxOB5PQfoq2iREXW2ToG1LXSewbzX5KfmIdgrFvqu5VAKxoSLCikYiE+YNhn+wcptFP3/vXQgUrGlosAYcv3einCEER2+9x39h5HSWsaChR8jN8oWIgppfS6KcIQbFQwYqGCqZnT+xwPyN/XfvDNPqxEGFFIxFldnjJXi/P8EMnBpK93H1jIcOKhhZlOTv3WAxy8VtKox87usgKKxpKiPcOlNnhxfbLcoYvQlDE9gfRNxYmWNHQYsBneDvZmYJfEYIi17FIghUNHUxOZ4f7KfkN0+jHIi2saGgxTA5f0Bl+6MRAsmdHF32BFQ0lxGcS+nF27rEY5OK3lEY/dnRRJKxoaFEWhxfbL8sZvsDRz8D6xiIvrGgkYWgmO4sQA8leKUY/RQiKXMeiG1jR0MEO91PyK4vgpeFvUQSsaKjAijkNMT0Qhy/oDD90YhCmHwF4AoyxfPwsikJPv+U6/BCdv+3QzNAGRVikOcOzOOTWjB5MQc0sBbWOn8aGsm2Jn67toH3VcUXEKo9gCPxbaQ/gb4NwARzvKeDDRnDc1sNw3LZxLNIT4PMLQLgc4F/q+VvB6BXsSEMJxZu7jA5vKm+nh+4MX+DoJ1vbN8BxLsLTbvgJVHjW1scA7Gz9o/dh90mvAeNKAL8Tt23RC9iRhhG6M2gGwdCOLnSjB7ltIN3oosSjn0TBYADcBPDnOO77Z2gFIwb2MXXLFrj8DBC+ZQWjP7CioYUYkEJerFzMl4KmPMN9DT/NcSn56/gZbJj6JiooC3CcM3Hc9z+FPHja9sfxsPtKAF/Itb9FJljR0CG1wxvO8JF8k6BozvBRMtG0afRjHF3AMLpgqVzXNgz8RbE19I3Ij/nP8LQbtqIbnLK1iYWFPwPxTV3ZsUiEFQ0lfKR2+EgdNgRkkEwKyIQzfCRgNfyMowvDyCVoX3VcPRv94HOY2vplFIENtzeA2usBzBRiz0IJKxpGpBldSGf4yH5Sun/DfbWNnox+TKMLqW/i/A6C+QMoElNb9wK4qlCbFhFY0dBCChpTQC7ryU5T2wI/dd98rh3kxYKq1wB4vHC7FgCsaKjBaASJeECazs6Ip+1kp6ZtAA59Db3A1NZZAN/p2g4tNrons/RgRUONx/UBiU46FpAmQdGc4UV7cnopTXZG6jDA/AietvVW9Az0za5NNNwDBRBZcrA3d6nA3B7a6hxezpPSQ/kgVxb+OtsZ+BN+AfV3GIsBeT8Dd3VOZDzq2kscBaxoqMDY1/mEQd6AzCsoYn5eQTHY6EZQChMrBoDi5zJENP09qHQhGkQzOGVrszhCSwdWNFRg/LR1F3mZxUCyN2yjH8Y8egnXmYtQyArmXxTGZYnBzmmo4B3yc7Rua0b7+hthOkSas7MYkHkEo70fC2nZdipB0eyXSzAUNnKNfviJ6CWIDu/Swq5CeCxBWNFQ4dhP1AHsNjh8J20nOw38dfwAAEegl/C5O/tEdxXEZMnBioYW/F2Dw6cIyIQzfCRgFTYSRxdlHP3I/A02mJ+OH5/YQ+GgU7vb37+xGB5LD1Y0tOBvJwdkqYb7Qnme0Y9pdNGT0Q+hWnk5egbnnC52nsbUzh8XRmWJwYqGDo+s2A7gobjDJ5ydl+ednR1+uraD9sX9fP8CgAhF46cveCHAx+U3QN+UlNVCgBUNHTZ8pgHmfwq37WSnpm0dvxSCQnQC7nrBuSgavvPRrvYn75+SKy1fWNEwwefPgLhpJzsR3y8szzv6aYNwJe56XnErKXeddCHAJ+ben3AHpnb+d2F8liCsaJjwu1+5Hxy82CXrcF8MSGm/IF3YcF/M7/XoR+ZvsKHsmxiOArlbsPv4mq5Cauw++SQQ/ldXNnzqbv9lACsaSajg/QAfbG2UdbifdvRjGl30Y/SjxcnAqm/iR6euSlNZibtOOgPM/wWgG/H5MY7fXsy7PZYwrGgk4aiv7AHTVb0b7iNad6lNdqYF4wxUG7di98l/mH4nAPe8bAS7T3ovCNcByC86LbwLvXweZomA2E4SJ2P3uTWM4TYwnt3JzDrcN5W304nDfVM5cox+0vLXtZ+Gf2YwCNeC+WNYv/N26aA6uOd5k6i7rwLwAQBP6aZBAADxFzG1481d21kGsKKRFve8dj0c53YAo9ozvJwXpFMH+zCJQRp+3YIeAPgGMN0L+A+BaBTAUQCeDuCPAIwU0wx+jVrzWTj2NvuawBSwopEFv37tG8H0BQCUfbhvKjfUKcNj7Fp+hY0uBolFsH8qjt+5c9BEhgV2TiMLnvy1L4HwYf0ZXkrnOsPr5g/SCobQdrkmO8sIBuhtVjCywY40MoMIv3zNZwB+WyeviLNzltFD3tGF2H7Rl1NDCML7MLW9uxvBliGsaOQCEX756k8A+Iv+DPfzXo7kFRSDjeEfXbTBl2P9jvcMmsUwwopGbhDhl6+6HMAl+c/OZReDNPyGDgzgIqzffs2giQwrrGh0i1+9+q3w+dMACzcVFRGQeQVFYaMno5+hxCzAb8H6Hf8+aCLDDCsaReCXr3gBmP4VwNH9OcMXIQai7SU/ugDAd4PoVZjabt/I1SXs6kkR+N2v74BTeyaIv9LKYCzbOzvLCOIvgmonWMEoBnakUTTuPuc8AFcDeGK24X7Z5zeGEvfBwdtx3PbrBk1kKcGKRi9w31lPQN25DOA/g/jxjVKKwZK8HFkA+Cos1D+KDbfPDZrMUoMVjV7i5694Jir+ZWB+qZ3s7At8EH8ZTXcTnnnTrwdNZqnCikY/8LOzT4Hjvx/gP+pk2snOwkDwAPw7gA/aeYvew4pGP/GLlzwXcN4D8DkAKvbOzq5xEMDn4dM1eMYtvxo0meUCKxqDwM/PPBxw3gTwOwE6ojzzG8MC+imAfwF5n8PUzv2DZrPcYEVjkLjjOVWsPPR0gM4F+68EsMpOdmpxD4CvwXG24Lib7xw0meUMKxplwT0vG0HTOxPkbwTjFQAm7WQnfgOibwDYgqntOyTFsxgQrGiUEQ+cOIbZiReC+TQQnwbGswA4y2Cycw7AzQCuB+F6O6lZTljRGAb87PRD4XungnAagNMAPLVVMPSTnXMAfgDgFhDfhNohO3DsdfVBk7Iww4rGMOKuFx0Ft/Jc+P4JAG8AsAHAmpJPdvog3A3mO0G4HR5uxWL9dmy4vTFoYhbZYEVjqeCnL/gdeO4GODgBzM8A81NAOAbgFQNgsxfAboB/BsZd4MpujC3+0L6Dc2nAisZSxw9feBhq3jEg5xj4fAwcejJ8fx1AqwGsBmE1gDEQJsGoGCz9FoQ5MM8Bzj6AHwHwMMB7wdiDCt0Lxr1oTvwGz/zuwf4cnMUgYEXDIop7njeJ+WpLPGa9BTx/5/yAGVmUDFY0LCwsMsG+T8PCwiITrGhYWFhkghUNCwuLTLCiYWFhkQlWNCwsLDLBioaFhUUmWNGwsLDIBCsaFhYWmWBFw8LCIhOsaFhYWGSCFQ0LC4tMsKJhYWGRCVY0LCwsMsGKhoWFRSZY0bCwsMgEKxoWFhaZYEXDwsIiE6xoWFhYZIIVDQsLi0xwB03AIh+IiACAmbF582aSy3ft2hXmbdy4EQCwe/fuWL0iMTU1xQCwZcuWSP769esjL6LdtGkTt+mD7Utqhw72xcIlg0oMAgHYuHGjMvDXrVsXyZueno5sT01NYe/evUbB2L9/fypBWb16tdFhnvSkJ/Hu3btlfpF9pqenYzampqY4EBtRZC699NLWF2yto5YGVjQGACIilSisX78+EriBGIgisHr16jCtCvQDBw7QUUcdFcmbmZlRCY0yPwsmJyd5enpamS9u33///TjkkENijiYK0P79+8N0IDKyuOzatYuBjqgEI1rodG4AABASSURBVBYrKP2FFY0eIhg1XHrppaE4yKMFWRgCUZAFYXJykoCoAExMTITpgwcPEgAcdthhEQ6zs7MRO2vWrInULwITExP8yCOPRPJWrFgRcax9+/aFdQXOYToQmpmZmch+gbAEoqISlGCUYsWkP7CiUSCIiHQCkUYcZGEIROHgwYMkikEgBGNjY+G+c3NzEREYGRlRisLCwgIBwCGHHNLl0bZw4MABAMDo6KjSker1eiR/fHw83J6fn2cgKjD79u0LhSUYyagEJY2Y7Nq1iwMhsZc5xcGKRheQRUK8vFi3bh3pBCKNOMzOztKaNWvCEUEgCrIYBNuBGLTtR7YDVKtV7eiiXq+nGnmMjIxoHabRaCjLFhcXw/xAXGQxCbZ1opJFTEQhMYmIFZB8sKKRAeJchGokIYqEPILQCUSSOCwsLFAwKlhYWCBZEEQhEANflT8xMRE7psXFxVyXKbVaLeY4Bw+2PuEqCsvs7Gy4LeaLAjM6OsozMzNh+sCBA6G4BOlATIJLoWB0Mjc3x+22Q0FJIyLiJY29nMkGKxoJSCMUppFEIBLj4+MEtEYQwWWFTiBkcQgEIAj+er1OK1a0PgZfr9cpEINAAMbHxyNi4LpumE4SifHxcWX+3NycsZ9EEWk2myznz83NhWlRXFSiEghKICaykMijkvn5eQ5EJBiRqEREvKTRjUKsgCTDioYGuksP3YhCHk2oRhKySIhiUavVCABWrlyJhYUFCgRCFIyJiQksLi6SKAqBIIhiIItGpVIJ041GI5gPCY8162hDFIj5+db3oavVapjneV5ENETBCfYNhCUor9VqLIpJIByykASXOqOjoxyIhygi4kgkEBDxciZJQMQRiL2EUaNy6aWXDppDqUAtOIcddphzyimn0L59+5y1a9fSunXraHZ21qnVas7Y2BjNz8878/PzNDk5SfV63XFd16nVarRq1SqnWq0SM1OlUnEajYYzNzdHjuM4ruvSxMSE02w2ncnJSWo0Gg4z0+joqNNsNh1mJt/3nYWFBWd8fJyq1So1m02nUqk41WqVKpWK47ou1et1J7DPzKFtZnbGx8edRqNRISIn+Oc4TphmZmd0dNRB625gp9lshnVHR0edarWq/ef7vkNEju/7juM4BCDMr1QqJLQRpn3fd8bGxsjzPKdWq1E7j4jIGRkZofn5eYeIHNd1qVKpULVapZGREfI8zxkdHaW5uTmnUqmQ53nEzDQ2NkaTk5Oo1+tUqVQcz/PC0Rwz08MPP+y4rkuu64Zi7bouzc3Nkeu61Gg0aHJyEvfee29wwqRarUbz8/O0bt06/PrXv8batWtpamoKAGj37t106qmnwsZJB1Y02gjE4pRTTqGpqSkiItq3b19MLPbv30979+511q5dG4pFo9FwVq1aRfV63QkCudFoOLJQACDHccIAC4TCcRyn2Ww64+Pj1Gw2nZGRkVAUfN93gmBpNpuOKBCjo6MUlAd2G42GMzIyQoI4VIjIGRsbc6rVakRAPM+rjIyMOK7rOq7rhkKCtpj4vh8RiKCe67pOW8yoHfDOyMgIVatVx/M8x3EcZ2RkhHzfd9ojpXazHcEIhMJxHHJdl3zfp5GREVpcXAz6gDzPo2q1Sp7n0ejoKC0uLlKlUqHf/va3TqVSoVqthkBAJiYmqF6vh/M/zEwzMzM0Pj4OZg7ndALxcBwHk5OTGBkZocceewyw4pEa9vIEnUuRLJchpksQ8fJDnJ8QLzWq1SqpLjlc1yX50qMtBjQ2NhZeSlQqFWo2mzQyMoLgt9Fo0OjoaHgJ0g72SHmbF4J8AKjVapFtHVzXDS4RItv1eh1A6xKlXq+H+b7vc5C/sLCAIM913bBecClTq9V4fn4e1Wo1zBMvYZrNJsuXMsFljOoSRr58kec/xLkP+bIluKtVvGwR5zwALOugsaIBUDDJKQuGOMEZ3GmpEoyxsbHIfIU4oRnMVQQikVYsgnkIMV8UikBIZJEQBSIQlFqtFgqCKCSBWKi2VVhcXAwFQd4OBMJ1XQ7y6/V6REiC/EBExDLP87QCIopFICSBiMjiMTo6yo8//ng4iVqv11mcSB0fH2dZOHRzHvJ8h50sbWFZX560L0kKEYyFhQWamJgIRhk0Pj5OzEztuYiYYLQvMcLLFM/zyHVdajabTq1WC9Oe5wXX+rH5gfaw2/E8L5xLcF3XqVarREROo9FwqtUqBb+u6zqO45Dv++GlDVqXDpVKpRK5PKlWq05weRTkVSqVsB0AzsjICLXzwl8ADhHR4uJi0CYBoGCep315Qu2gC+cigr4CgGazCcdxqFqtIignIjQaDbTrAQCq1Spc18X8/DzVajUsLi6iXq+H6fblE0ZHR+G6LlzXpYWFBYyPj2N8fBwjIyN47LHHiJmxZs0aPProo8F8Cebn52n16tXYt28f1q1bh9nZWaxdu5Z27dqF3bt3Y+vWrX3z07Jh2T4aL66OBE+B7tmzJzI8Dy5J0owwgpFFsK/pciQYPahGF2NjY2F5pVIJ/zWbTXIcJ9z2PC+cgAzyx8bGKBCFQBjEeYi2AFRc13WYudKeYA1/q9VqhYhcInKbzabbbDbdYDsoZ+ZKsA8zVwKbvu+HbbiuG4pSMCcScB0bG4vkVyoVGh0dhXhswb+gjxqNBlUqlUCAIiOz9pxR2MdB/wfp4NIw+NssLCzQ3NwcHTx4kGZnZ+mwww7DwYMHKek5nOCO3o0bN2LXrl20efNmCh4TWG5YtqIRYNeuXRTcd7FhwwaIowyg9QBYko1gDkO+JAFagiHeXLW4uEjyEqd4b4QoJEDnksRxnPBSpNlsRi5DgknBoF5wqeE4DgX/giANRgVikFcqFcdxHIeZK67rVsbGxiL/XNetuK5baU/COu1VnDBNrSWasI3gn8gBiF4+BWnHcSKXWc1mM7w0A1oCIS4Py/ecBP9E4RBvcpNvmxdvnw+ewwnuwg0e4gvuswFa81niA4O9fr3AMGDZi0YS5CdGAwQOlwYrVqww3qad4z4JAAjnLYDoJGbS3ERQp9lsUrVahed5wUoFxG0xv9lsUvsSKtYe0LpUkCHWSZpkVUEUCyDeT7ob0bJAfqBPRNrXBSw3WNFA5+UxQOtWY/ExbfmpywDiU53BQ1u6h7eCSbqDBw+iVquxfAu2eAdlcLNUgGCiUJw8DFYgfN8PJxKDicjFxcVwUtL3/UjdxcVFMDP7vs/NZtN3HMdnZnYcx/c8z/c8z282mx4zN5vNpiemicjzPM/3fT/cp9lsBpvcaDQgt6VKBxOkYl0ACI4tOGaxL4Jfue+CydBgW7wpLA3Em8AAIJgMvf/++wF0VlLS2lsuWLaiwcy8adMmXr9+ffjyF9XLYURMTk5y8NDUihUreGJigsfHxzkQidHRURafoxCXA8XbpcWVgMDpa7Uae57H4oqB53ksriz4vh8RDt/32XEc3/d99jyPHcfxR0dH/UAU2vVDgajVap4oEJ7n+Y1Gw2s0Gh4AL0g3Gg3P9/2m7/tNMU+sI9oIBCT4XVhYYMdx/IWFBfZ9n0dHR/12uywLWXC8wa94zEDr7lLdKopqVQWIiodu+VV8RF9MA4i8+yNh6XVZYlm/7i9YNtu8eTN27dqF9evX0/T0NK9btw7T09NYvXo19u/fTzMzMzw5OYnp6Wlat24dz8zMYHx8nBYWFjh47mNubg4jIyPUXuLDwsICarUatYUDANBoNMLfZrOJZrMJILxUCLcdx+H25YDMlx3HofYdphgbG+NGo0Ft8aD5+XlqB0xsuVVMB5cvi4uLYZqZY/dtiJDvzRCXW+fm5uC6Lge/juOEo4B6vQ5xFNJoNNhxHFQqFW40Gmg0GizuS0TseV4oBMzMnueh2Wxys9mMCEaz2eRGowHHcSK3nacRjGCUIT7wlrTk2h6Rsug7Xbjf0GJZiwa31/KShAMA9u/fj8nJSRw8eDB84Kq9ksLz8/MYHx+PPNRVr9cxOjrKwUSc4zjcnqQLRaPRaKBWq7HjOCQEMLfT7HleOFFYq9V4cXGRPM/j4B6NdnCS4zjkeR6L92wEk4qO44R5AOC6rigWFIgB0Jl3EPNEBPdaiF0obDMzo9FooFqtcnt5lJvNJlzX5ZGRkcgNXsElTdsmExEqlQovLi4G92+EotO+LEGz2WTHcbgtqhBFIxCLRqMhigWIKHaPRqVS4fn5eTiOk/oejampKd69e7d9rB725q4QurtCAYQrKqq7QoH4E6xpb/QS06qbvQBE8lQ3fAGdB9KClRagcxPX6OgogM6DauJIQ5ycDEZDYt0A4sNowXxDm0ds1BHUDwRCvIFLvgsUQOTSQrwEEct0d4K2ecdGFoFIiGIxMTHBCwsLscfpVWLR/tvHLkmWu1gEWNYjDRHtUUdwuULi27yDUQcAbosHAHClUqH2Eh3PzMzQ/Pw8VqxYwUQUPP7ORET1ep2CS4uFhQVaXFzkQECCJcn2HZB04MABmpiYYN/3ETybsbCwgPaDaoE4hDdGVSoVYuZwKdL3/eAXlUqF5ufnw9vI28dJ9XodIyMjcF03FIggyFWQL5MAxCYtg2Cq1+uR27+DSczFxUWMjIzEbhVnZg5s1Go1bs+HRJ5+PXDgQLAvO46DYLTRPn4+ePAgRkdHmYjC0UW9Xsfq1avDkcXCwkJMLADwzMyM8tbx6enpUCyuvfbaZX0HqAw70lBAfodGmpEHgNgNYIB69CH+yiMQoPPeDHEUAkRHHUD8sXixTH4cPli+TFrelesFE7Xyqo4MsZ7qMXnVI/KBKIhpoPW+jaIfjxeEAmlHFsv9dnEdrGgkQLxsSfOmrrwv4FGJCKAWkmBbJyaA+cU7wf0Ned/aFUB8wY4qH4i/kEclDkBHEOTtNs+YSMhv9NK9iEclFKoH0ux7NNLDikZKBLcMZxEQQP9yHgDGF/SI6WAy1SQmYp6YL77iT35Rj5yXBSrBEMVC9eo/UQhU4iC+qat9DOJcSjiSANQioZrUBOwr/4qGFY2c0L3ZC0gWESA6EinihcKqlwmrXiSsuzM1yA9eIyhjdnY2aFfrMHKZfKOV/C5QoDNiEHhExEF+J6j4gmHVSAKIi8Qdd9yBww8/PHLpAdhVkLywolEQkkQEQOS5lryfLhAFBYh+ukD12QLxxcTBtu4YJicnjccYBLwKYuDLQqDKF986Ln43RScObX5KgQA6r+0D7GcMeg0rGj2COJkKmIUESP+RJPHLaKoPJInPUsgCI0L+TkpeiMEvQv6Akvxtk6AOEP1SWzcfTRK/wGYvN3oHKxp9hDgvAuT7HKPqISrxqUwg+hU20+cXu/3Kmnz7tcAn9rlG8VONqud5AlEQvwWb9vOMdgTRX1jRKAlkQQH0ogJEP/osf/BZfLQ/QL+e2FR9IFp8ABCIfhDa9DFo+yHocsKKxhAhEBbxsgfoiAvQeaFQmvc+7NmzhzZs2JCLizi5mATxi/BA9KvwwWUEYAVhWGBFYxlA94Yp8W8vipAJ4tOduhdX2eBf2vj/AdH4FD9SXHAPAAAAAElFTkSuQmCC;" parent="1" vertex="1">
          <mxGeometry x="700" y="736" width="70.96" height="86" as="geometry" />
        </mxCell>
        <mxCell id="XFlSbY_NoUcpt89pXaqg-37" value="" style="curved=1;endArrow=classic;html=1;rounded=0;dashed=1;" parent="1" edge="1">
          <mxGeometry width="50" height="50" relative="1" as="geometry">
            <mxPoint x="730" y="850" as="sourcePoint" />
            <mxPoint x="500" y="970" as="targetPoint" />
            <Array as="points">
              <mxPoint x="720" y="910" />
              <mxPoint x="700" y="950" />
              <mxPoint x="600" y="970" />
            </Array>
          </mxGeometry>
        </mxCell>
        <mxCell id="XFlSbY_NoUcpt89pXaqg-38" value="" style="shape=curlyBracket;whiteSpace=wrap;html=1;rounded=1;" parent="1" vertex="1">
          <mxGeometry x="140" y="300" width="30" height="140" as="geometry" />
        </mxCell>
        <mxCell id="XFlSbY_NoUcpt89pXaqg-39" value="Existing&lt;br&gt;Infrastructure as Code" style="text;html=1;strokeColor=none;fillColor=none;align=center;verticalAlign=middle;whiteSpace=wrap;rounded=0;rotation=-90;" parent="1" vertex="1">
          <mxGeometry x="50" y="355" width="140" height="30" as="geometry" />
        </mxCell>
      </root>
    </mxGraphModel>
  </diagram>
  <diagram id="V5n6GPL_r3snIAVw4WNA" name="Where py-animus fits in">
    <mxGraphModel dx="2924" dy="1194" grid="1" gridSize="10" guides="1" tooltips="1" connect="1" arrows="1" fold="1" page="1" pageScale="1" pageWidth="850" pageHeight="1100" math="0" shadow="0">
      <root>
        <mxCell id="0" />
        <mxCell id="1" parent="0" />
        <mxCell id="2h8A7HF5MiViDg5_Mzog-3" value="" style="rounded=0;whiteSpace=wrap;html=1;fillColor=default;strokeColor=#FFFFFF;" vertex="1" parent="1">
          <mxGeometry x="-80" y="80" width="760" height="560" as="geometry" />
        </mxCell>
        <mxCell id="CBE3YdKsfRfxMp-rkSlD-3" value="CloudFormation Templates" style="rounded=1;whiteSpace=wrap;html=1;" vertex="1" parent="1">
          <mxGeometry y="300" width="397.3" height="140" as="geometry" />
        </mxCell>
        <mxCell id="CBE3YdKsfRfxMp-rkSlD-2" value="Terraform Templates" style="rounded=1;whiteSpace=wrap;html=1;" vertex="1" parent="1">
          <mxGeometry y="140" width="400" height="120" as="geometry" />
        </mxCell>
        <mxCell id="KELaggYR6y3BLwHqBCAI-6" value="" style="rounded=1;whiteSpace=wrap;html=1;fillColor=none;dashed=1;" vertex="1" parent="1">
          <mxGeometry x="-40" y="120" width="480" height="480" as="geometry" />
        </mxCell>
        <mxCell id="DzTtYx4HfDhl3Cy5lzPn-1" value="" style="shape=image;verticalLabelPosition=bottom;labelBackgroundColor=default;verticalAlign=top;aspect=fixed;imageAspect=0;image=data:image/png,iVBORw0KGgoAAAANSUhEUgAAAHQAAABzCAYAAABJnyafAAABhGlDQ1BJQ0MgcHJvZmlsZQAAKJF9kT1Iw0AcxV9TS0UqFewg4hCwOlkQFXHUKhShQqgVWnUwufQLmjQkKS6OgmvBwY/FqoOLs64OroIg+AHi6uKk6CIl/q8ptIjx4Lgf7+497t4BQr3MNKtrHNB020wl4mImuyoGX+FHHwIIY1hmljEnSUl4jq97+Ph6F+NZ3uf+HL1qzmKATySeZYZpE28QT2/aBud94ggryirxOfGYSRckfuS64vIb50KTBZ4ZMdOpeeIIsVjoYKWDWdHUiKeIo6qmU76QcVnlvMVZK1dZ6578haGcvrLMdZpDSGARS5AgQkEVJZRhI0arToqFFO3HPfyDTb9ELoVcJTByLKACDXLTD/4Hv7u18pMTblIoDgReHOdjBAjuAo2a43wfO07jBPA/A1d621+pAzOfpNfaWvQICG8DF9dtTdkDLneAgSdDNuWm5Kcp5PPA+xl9UxbovwV61tzeWvs4fQDS1FXyBjg4BEYLlL3u8e7uzt7+PdPq7wcqgHKKgj0IngAAAAZiS0dEAP8A/wD/oL2nkwAAAAlwSFlzAAAN1wAADdcBQiibeAAAAAd0SU1FB+cDEAUQEIGSbAsAAA1OSURBVHja7Z19mFRVHcc/Z/YVMEQEYncWNRHFFzTESlNiKRFQZpassXRnyd4gH8ulN6OsgHwqLBPXzEfoqXR3lpL1bWeQstAdUFRI1CRYhEiRnVllETaIl9mXe/rjnoHrbWZ2ln1h7uz5Ps99Zs69v3vOved7zzm/3+/8zr3Qhygtlbl+b+S7Pt+WfDT6Ba6+zHzkyK0u4BcFsWFbKrxNPl3dDifUgnMkYqXfG3mmvGz3BF3tzic0jk8K6XrF721a9sWZzSN19TufUIBcEHPb84w3/N5oZWmpzNU0OJvQOE4Dee+YodHN5Z7mmZoK5xMKgITxQhirK7yR0Bdmvz1WU+JwQi3Ezuo0chvLPZGq8pnvDdXUOJxQRWueENwm8mLbKrzRuT6fzNEUOZrQY8QWSeSywlh0wxxP9CpNk+MJPdYNTzKEXOf3RlfedG30TE2XwwlVECB9rly51e+NLPL5dg/StDmb0DgGAwvzY66tN1236zRNnfMJjTfXs4zc3FPAdP476dp9vpU5IIUmNAnGDI0ucYqZU1oaKm1pKdx0xRV1hZrQJDAkysw52ljhjc5duFC6Mo/I1SVTpwarQT4LXKK73PRQLJHLdr4a3eAvi3w8Ey7I4wkNLi2tXwQdO6Skwhwt9BjaXVyG5Hm/N7pyjid6xkkytsSUKfW+AwdkI4iFQGF/lp5thB4zcwwhG/3eyKKbS9/stwqdOnXVpNLS0HNCiJVCcFIeqGwk9H1mTufQ/O3+sqY5fVnQ5MmPFU2ZElxmGMZG4MqTedNZPxcpYQxSPOz3RL+INOYHVpX8oxfNkPyWloJbpBQ/EYKM0LRdDBQIWYpLvFJe1lRd8el3RvU0uylTQp49ewobQdybKWQOiBZqf4CFFBWys9Pj90SWxApbl9bVXdjWTXtyPMilIGdk5A0yMDEMwZKC2LDNfm/TdemcMH36X4ZPmRKsArkZmJGpN9anLbSl5QKjZGhzM8iiDL3/c0GsKvdG1iBclbX1RVv/v0U25Apx8EuxWNtPhWBExndBfZl5OCw6xFHXOGAxcDSD7ZyrhZSvlXsiVT7fzlOPmyGhT8HBV6VkGWQ+mf3S5db8dfShQNC9qENwrhSyJoP14TwhuK0gVrDYbJmrS6SUa4CLHKUk9FdBf6p3766tL5ljID8JvJ6xtEohAAyjTeBA9LtStCJY0jB2YvFEhPwC0IKG87XcxYuFEagvqTY6O85DcBfQpqnIArNlxVNn7g/UuxcAFyPFak1HltihgaD7jUCo+DqXYBqSRk1LljgWquvdawYXNV8CYj5wQNPjcEIBli+/rD0QLK7qlIyVkvuATk2TgwmN448h997akLsSKT4KPK+pcjihx8bXUPErgaB7shB4EezSlDmc0Dhq6t0hcSTnQuDOwva8dk1dYjhq+qzmr6MPAT/WtGVBC00EKeSTwJsOudxOkA+++OKWmCY0mWMiWNIQK2gd7wAzJyyEmBQOl90Ciw3d5aaAijio8l//1ko6cheB+EoGPai7hRA/bGjwVOsxNA1UeCKLJRyOFbYuDdSd1QzMu2l2dLnLkFWcxOg7KTkshPwlDF3S0DC1X+eBnb0U4ngoyesVZbuvBVjxZPGmQLB4skDecBLMHCmEqMvLE+eHw2WLwuGp/T6pny0xRedJ6Xqq3Bv5W3lZ8wUgZE2wpG6wwQX0X7TEyy6XcVVDg+eGNWs8b2sttxdgDyVZHnIfDgTdi2SuHKeiJWQfdK9RIZgXDm/62LPPzn5Bmy293+upUJLCnX5vtNLnkzm1j5c01daXzBHSNRX4Ry8R2SYl93V0yPENDd7lfa29DmBCj+F0kPcWxKIb/WXRyQA1oaK1YycWX6qiJfb0IO9VeXmu89eu9VauX192MJNueiAEWl+KlOsqvJFVOS7XNxYvFm8B1TfPfjPYIfMXIJkPFKSZV6MQrm82NMx6OlNvdsAEWkuY1WEYW/1lkSU+355THnryQ62BevcCV468WMCqLrrXfSDnjxx5dEImkzmgCFUYhOR7BbH2beaKNCmqnyjZXhN0e1yCaRK22NSsdilZLoQ4Lxwuq6qruyHj52YH6lIIN1I8XOFpfqnc03Q5mNESQ0Y3TxRS/h6gs1O0CmFMWLvWOy8c9ux1kKbvXJR7IlVCcFuPFVYhA3nt+bc/tHrUO05/UgdqC33fQy2kqOjIbf+X3xtZ9I2ZOwo0odmBIcDC1rzBP9WEZhEMSZ4mVEMTqqEJ1dCEakI1NKEamlANTaiGJlQTqqEJPbkX72IN+sUb2UNoTb07lOtqO1e9eCOm6cyCLjceSmIYxoSuQkk0oQ7CilVjdiQPJdGEOhbxUBK1Iq1VE5oFiL94I1ZgDLgXb2S12VJXN2ZfbchdKXLEBAlPa0KzBDVPFDfWBt0zhMCLc1Z8a0LTMXMsK74PakKzohu+sC0QLK7qoHM8yOWAoQnNAvwpeEY0ECyZJ6XrcuAFTWiWoDZU9PdAsPgqgbwBeFsTmhUwV3znk38RgpW6PjQ0NDQ0NDQ0NDQyDXE1fSjw2y5kZwLWj6teCVQCHwR+CTwEXK+r9CQaYJgvYxLASOCfwDhgkjq+DnPd5BWYsTsfAyYCAaAZ8yu6FwCXA4OAZcARTAf4R5TMDkX8buCwKmcMsC0bDPlMQ/y1NksUOQCjgauA6cCjitw24GV1/HpglCLmfsCjjq8BNimZp4F3gI8Cc4EVmM7wH6lzHgbuA8ZrCnoXcU/RJo6/YatNkeoCioD1qgUOUccfAW4Fhido7XFMAL4OBDE/BieAa1Tr/TuwQHXTGn1EaJ2qfIBpitBmzJmI7aoFfytFPruArwLzgWtV6/y8aqHNSiY+q3EmcIsiV6MPutx56v9B4DuK2EKgCYgAwxTBnwPeAzZjxuosVC17D/AcsFV1xXuAzwJlwG+AeqCY42+c7lTbLF39zsc04A+6GjQ0umG2DGT9YRrwKTWktAN7lXL4hFPH+Fzgaz04f4saP52GAjW2T09y/DQnK22yB9uDDr3nO1Lc014ndzsD4X25ieCzpZ/B/GDecNX1akIdhrMt/1sxfdRZ8T21XOD0BPvP5/2feNyobtqOow6970GW/y3ZQmac0H0J9ts/O9WRRM6qMZ6qCD7Sg2vp6IHMB9QY+N8T0CHSRaFSqP7TwzrvSEMuTw0B/0nRcHItMinXx06wKQrrE8icDtyJOUNjVypqgYsTnLMO08n/sjIZAEqVmXC/Sv/YInOX2jcGc3puu0qPV+kw8K5qYfHyY+rcOzjufwbTc/U3tRkW+SOW8l4GllrOyQH8mJMNByzndGJ6zJZg+rutGGfLb5Qln5fUL8BjFplzgFOAG1Xd/ct2fT9XJuZgTI9dAHMWK34fh4FfkSKKsytCz8Wc+kqlAcdUJdpbfvz4A4rIeDqkZH5n2fc65gzNIcu+QcrcSEcL34w5zwvmZEE65zys5Ico8ruSb1UPZRwX245/D3jVkl6g5LZZ9q0D9ndRzhOYrtdUMreeCKECeCXNynlP2XSJCLVvryUgNNE2DjijG6bVnd0k9B4l/0A3ytiLOZ2YiFD79usEhPbW9sKJBFp/AnOSO45dwNWYTvyxmHOocQwnvQiGdtV9doX1qrXuBr4PfAa4VJVbrK7Lbht71W+96uan2ZSgt4DLLNvdajj5sm2cXQpMVg97uTrPOvx8JY3r38fxeeVkaAIeJ/Xyx7jMn1No72m30B/ajvlt534whfMhUQv9I/Ahi0yiFrolhVcnkYLWYjn3UBLtPH68McHxWbbyH0kgM9km85cULfSo6imGWs7fZhuTH7I1FKEe3LiMAVTbZMCMDjmWz4nYoaNt6W229LtqIB9kIZgklerBjHRIhbuBH3TDtDAw52BHqPRgRXJ3VpkV29KJFjNtUHnGezl3krzeUPe5I0V5h4CbE2jfVmsjxvvjueKwatyuEyHU/grvaqVl2X2lif5bcTANMgGeOgE70U5edych8m3pwwlk2tR1FXRxn1u6IDPjPEXnnyQbugz4ttK4dTiLw11/M5QaLzSFvU9oJWb4STK81wfXfZuNzH+qsSre1V5tM5e6CzmQCLW79hrTHAt7Exda/r8NXGIbNzf1kFC7ZjwigcyptnEzI97ZcCJ2aJMtPbUbClRfXPf+BEpQTxcy25WYG5Uf14qbE2izjmyhz9jStys7coNqvSOUkvIRpTCNID1ndHewCyix2MzfUvvOVo6MD/cw/43K9CmylNGoDPlDKn2N7ZwnM7kr7sqXG+qGO+rDSRwLyb6wa3cslCaQ+Vk3XWI53XQsoGy+dPN/3lKG3bHwWJL8rY6FAylMHquTPhFes5Z3ol1TBbA6DbkOmxeot3A3sDPJsf9avDY9QTVmQHhXY2NIOQ4y4vVzybrcZsyg6zgituOtwHXAx9XvRZi+3MOq5TUr70rY9vQttBjth5OU/SjHp8kA/p1AZh9mVH4l5kKoPEw32XOYq+lygS+lcDTcamlRqV7w+CDmqoLr1b2OUte/X2n2T2Eu7bDX3QJLenuSvH/F8eUkbUlk7rEoZMmGrSp1XQD8D8fFGIo3K4lpAAAAAElFTkSuQmCC;" vertex="1" parent="1">
          <mxGeometry x="40" y="160" width="80.7" height="80" as="geometry" />
        </mxCell>
        <mxCell id="CBE3YdKsfRfxMp-rkSlD-1" value="CloudFormation" style="sketch=0;points=[[0,0,0],[0.25,0,0],[0.5,0,0],[0.75,0,0],[1,0,0],[0,1,0],[0.25,1,0],[0.5,1,0],[0.75,1,0],[1,1,0],[0,0.25,0],[0,0.5,0],[0,0.75,0],[1,0.25,0],[1,0.5,0],[1,0.75,0]];points=[[0,0,0],[0.25,0,0],[0.5,0,0],[0.75,0,0],[1,0,0],[0,1,0],[0.25,1,0],[0.5,1,0],[0.75,1,0],[1,1,0],[0,0.25,0],[0,0.5,0],[0,0.75,0],[1,0.25,0],[1,0.5,0],[1,0.75,0]];outlineConnect=0;fontColor=#232F3E;gradientColor=#F34482;gradientDirection=north;fillColor=#BC1356;strokeColor=#ffffff;dashed=0;verticalLabelPosition=bottom;verticalAlign=top;align=center;html=1;fontSize=12;fontStyle=0;aspect=fixed;shape=mxgraph.aws4.resourceIcon;resIcon=mxgraph.aws4.cloudformation;" vertex="1" parent="1">
          <mxGeometry x="39.999999999999986" y="320" width="78" height="78" as="geometry" />
        </mxCell>
        <mxCell id="KELaggYR6y3BLwHqBCAI-3" style="edgeStyle=orthogonalEdgeStyle;rounded=0;orthogonalLoop=1;jettySize=auto;html=1;" edge="1" parent="1" source="CBE3YdKsfRfxMp-rkSlD-2" target="KELaggYR6y3BLwHqBCAI-2">
          <mxGeometry relative="1" as="geometry" />
        </mxCell>
        <mxCell id="KELaggYR6y3BLwHqBCAI-4" style="edgeStyle=orthogonalEdgeStyle;rounded=0;orthogonalLoop=1;jettySize=auto;html=1;" edge="1" parent="1" source="CBE3YdKsfRfxMp-rkSlD-3" target="KELaggYR6y3BLwHqBCAI-1">
          <mxGeometry relative="1" as="geometry" />
        </mxCell>
        <mxCell id="KELaggYR6y3BLwHqBCAI-1" value="Amazon AWS" style="sketch=0;pointerEvents=1;shadow=0;dashed=0;html=1;strokeColor=none;fillColor=#505050;labelPosition=center;verticalLabelPosition=bottom;outlineConnect=0;verticalAlign=top;align=center;shape=mxgraph.office.clouds.cloud;" vertex="1" parent="1">
          <mxGeometry x="550" y="343" width="94" height="55" as="geometry" />
        </mxCell>
        <mxCell id="KELaggYR6y3BLwHqBCAI-2" value="Microsoft Azure" style="sketch=0;pointerEvents=1;shadow=0;dashed=0;html=1;strokeColor=none;fillColor=#505050;labelPosition=center;verticalLabelPosition=bottom;outlineConnect=0;verticalAlign=top;align=center;shape=mxgraph.office.clouds.cloud;" vertex="1" parent="1">
          <mxGeometry x="550" y="172.5" width="94" height="55" as="geometry" />
        </mxCell>
        <mxCell id="KELaggYR6y3BLwHqBCAI-5" value="" style="endArrow=classic;html=1;rounded=0;exitX=1;exitY=0.5;exitDx=0;exitDy=0;" edge="1" parent="1" source="CBE3YdKsfRfxMp-rkSlD-2" target="KELaggYR6y3BLwHqBCAI-1">
          <mxGeometry width="50" height="50" relative="1" as="geometry">
            <mxPoint x="400" y="640" as="sourcePoint" />
            <mxPoint x="450" y="590" as="targetPoint" />
          </mxGeometry>
        </mxCell>
        <mxCell id="2h8A7HF5MiViDg5_Mzog-1" value="py-animus" style="sketch=0;outlineConnect=0;fontColor=#232F3E;gradientColor=none;fillColor=#232F3D;strokeColor=none;dashed=0;verticalLabelPosition=bottom;verticalAlign=top;align=center;html=1;fontSize=12;fontStyle=0;aspect=fixed;pointerEvents=1;shape=mxgraph.aws4.external_toolkit;" vertex="1" parent="1">
          <mxGeometry x="52.70000000000002" y="472" width="68" height="78" as="geometry" />
        </mxCell>
        <mxCell id="2h8A7HF5MiViDg5_Mzog-2" value="py-animus ensures that both sets of templates are deployed to their respective cloud environments in the right order." style="text;html=1;strokeColor=#6c8ebf;fillColor=#dae8fc;align=center;verticalAlign=middle;whiteSpace=wrap;rounded=0;" vertex="1" parent="1">
          <mxGeometry x="160" y="476" width="220" height="74" as="geometry" />
        </mxCell>
      </root>
    </mxGraphModel>
  </diagram>
</mxfile>
